<svg xmlns="http://www.w3.org/2000/svg" viewBox="0 0 64.04 56.5"><defs><style>.cls-1{fill:#fff;}.cls-2{fill:#eaeaea;}.cls-3{fill:#f4f4f4;}.cls-4{fill:none;stroke:#000;stroke-miterlimit:10;stroke-width:0.34px;}</style></defs><title>plural_symbol</title><g id="Layer_2" data-name="Layer 2"><g id="Layer_1-2" data-name="Layer 1"><circle class="cls-1" cx="13.84" cy="42.6" r="13.67"/><path class="cls-2" d="M27.59,42.6A13.47,13.47,0,0,1,14.37,56.35c-.49,0-1,0-1.51-.08-5.08-9.11-3.13-20.26-1-27.17a12.52,12.52,0,0,1,2.48-.24C21.65,28.81,27.59,35,27.59,42.6Z"/><circle class="cls-1" cx="13.84" cy="42.6" r="13.67"/><path class="cls-3" d="M27.59,42.6A13.47,13.47,0,0,1,14.37,56.35c-.49,0-1,0-1.51-.08-5.08-9.11-3.13-20.26-1-27.17a12.52,12.52,0,0,1,2.48-.24C21.65,28.81,27.59,35,27.59,42.6Z"/><circle class="cls-4" cx="13.84" cy="42.6" r="13.67"/><circle class="cls-1" cx="50.2" cy="42.66" r="13.67"/><path class="cls-2" d="M63.95,42.66A13.47,13.47,0,0,1,50.73,56.41c-.49,0-1,0-1.51-.08-5.08-9.11-3.13-20.26-1-27.17a12.52,12.52,0,0,1,2.48-.24C58,28.87,63.95,35.06,63.95,42.66Z"/><circle class="cls-1" cx="50.2" cy="42.66" r="13.67"/><path class="cls-3" d="M63.95,42.66A13.47,13.47,0,0,1,50.73,56.41c-.49,0-1,0-1.51-.08-5.08-9.11-3.13-20.26-1-27.17a12.52,12.52,0,0,1,2.48-.24C58,28.87,63.95,35.06,63.95,42.66Z"/><circle class="cls-4" cx="50.2" cy="42.66" r="13.67"/><circle class="cls-1" cx="32.02" cy="13.84" r="13.67"/><path class="cls-2" d="M45.77,13.84A13.47,13.47,0,0,1,32.55,27.59c-.49,0-1,0-1.51-.08C26,18.39,27.91,7.25,30,.33A12.52,12.52,0,0,1,32.51.09C39.83,0,45.77,6.23,45.77,13.84Z"/><circle class="cls-1" cx="32.02" cy="13.84" r="13.67"/><path class="cls-3" d="M45.77,13.84A13.47,13.47,0,0,1,32.55,27.59c-.49,0-1,0-1.51-.08C26,18.39,27.91,7.25,30,.33A12.52,12.52,0,0,1,32.51.09C39.83,0,45.77,6.23,45.77,13.84Z"/><circle class="cls-4" cx="32.02" cy="13.84" r="13.67"/></g></g></svg>