<?xml version="1.0" encoding="utf-8"?>
<!-- Generator: Adobe Illustrator 21.0.0, SVG Export Plug-In . SVG Version: 6.00 Build 0)  -->
<svg version="1.1" id="Layer_1" xmlns="http://www.w3.org/2000/svg" xmlns:xlink="http://www.w3.org/1999/xlink" x="0px" y="0px"
	 viewBox="0 0 226.4 226.4" style="enable-background:new 0 0 226.4 226.4;" xml:space="preserve">
<style type="text/css">
	.st0{fill:none;stroke:#FFFFFF;stroke-width:23.93;stroke-miterlimit:10;}
	.st1{fill:#FFFFFF;}
	.st2{font-family:'Gilroy-ExtraBold';}
	.st3{font-size:12px;}
	.st4{fill:#F4BD07;}
	.st5{font-size:83.1597px;}
	.st6{letter-spacing:1;}
</style>
<title>tick</title>
<g>
	<g id="Layer_2">
		<g id="Layer_1-2">
			<circle class="st0" cx="113.2" cy="113.2" r="101.3"/>
		</g>
	</g>
	<text transform="matrix(1 0 0 1 101 116)" class="st1 st2 st3">A</text>
	<text transform="matrix(1 0 0 1 140.0522 126.5403)" class="st4 st2 st5 st6">-</text>
	<g>
		<path class="st1" d="M137.5,130.6c0,17.3-14.1,28.6-31.5,28.6H65V61.6h38.2c17,0,30.8,11,30.8,27.9c0,8.1-3.2,14.5-8.5,19.1
			C132.8,113.2,137.5,120.7,137.5,130.6z M87.3,82.5v17.3h15.9c5,0,8.5-3.6,8.5-8.6c0-5-3.3-8.6-8.5-8.6H87.3z M115.2,128.9
			c0-5.4-3.6-9.3-9.2-9.3H87.3v18.7H106C111.6,138.3,115.2,134.4,115.2,128.9z"/>
	</g>
</g>
</svg>
