<?xml version="1.0" encoding="utf-8"?>
<!-- Generator: Adobe Illustrator 21.0.0, SVG Export Plug-In . SVG Version: 6.00 Build 0)  -->
<svg version="1.1" id="Layer_1" xmlns="http://www.w3.org/2000/svg" xmlns:xlink="http://www.w3.org/1999/xlink" x="0px" y="0px"
	 viewBox="0 0 226.4 226.4" style="enable-background:new 0 0 226.4 226.4;" xml:space="preserve">
<style type="text/css">
	.st0{fill:#FFFFFF;}
	.st1{enable-background:new    ;}
	.st2{fill:#F4BD07;}
</style>
<title>tick</title>
<g>
	<g id="Layer_2">
		<g id="Layer_1-2">
			<g>
				<path class="st0" d="M113.2,226.5c-62.5,0-113.3-50.8-113.3-113.3C-0.1,50.7,50.7-0.1,113.2-0.1c62.5,0,113.3,50.8,113.3,113.3
					C226.5,175.7,175.7,226.5,113.2,226.5z M113.2,23.9c-49.3,0-89.3,40.1-89.3,89.3s40.1,89.3,89.3,89.3s89.3-40.1,89.3-89.3
					S162.5,23.9,113.2,23.9z"/>
			</g>
		</g>
	</g>
	<g class="st1">
		<path class="st2" d="M182.5,103.3h-13.3v13.3h-11.6v-13.3h-13.3V91.6h13.3V78.3h11.6v13.3h13.3V103.3z"/>
	</g>
</g>
<g>
	<path class="st0" d="M46.8,110.4c0-28.7,21.3-50.7,50.7-50.7c17.7,0,33.3,8.8,41.8,22.6l-19.2,11.2c-4.3-7.5-12.7-12-22.6-12
		c-17.3,0-28.4,11.6-28.4,29s11.2,29,28.4,29c9.9,0,18.4-4.5,22.6-12l19.2,11.2c-8.4,13.8-24,22.6-41.8,22.6
		C68.2,161.2,46.8,139.1,46.8,110.4z"/>
</g>
</svg>
