<?xml version="1.0" encoding="utf-8"?>
<!-- Generator: Adobe Illustrator 21.0.0, SVG Export Plug-In . SVG Version: 6.00 Build 0)  -->
<svg version="1.1" id="Layer_1" xmlns="http://www.w3.org/2000/svg" xmlns:xlink="http://www.w3.org/1999/xlink" x="0px" y="0px"
	 viewBox="0 0 226.4 226.4" style="enable-background:new 0 0 226.4 226.4;" xml:space="preserve">
<style type="text/css">
	.st0{fill:#FFFFFF;}
	.st1{enable-background:new    ;}
	.st2{fill:#F4BD07;}
</style>
<title>tick</title>
<g>
	<g id="Layer_2">
		<g id="Layer_1-2">
			<g>
				<path class="st0" d="M113.2,226.5c-62.5,0-113.3-50.8-113.3-113.3C-0.1,50.7,50.7-0.1,113.2-0.1c62.5,0,113.3,50.8,113.3,113.3
					C226.5,175.7,175.7,226.5,113.2,226.5z M113.2,23.9c-49.3,0-89.3,40.1-89.3,89.3s40.1,89.3,89.3,89.3s89.3-40.1,89.3-89.3
					S162.5,23.9,113.2,23.9z"/>
			</g>
		</g>
	</g>
	<g class="st1">
		<path class="st0" d="M106.6,114.7h-3.1l-0.4,1.3H101l2.9-8.4h2.4l2.9,8.4h-2.1L106.6,114.7z M106.1,112.9l-1-3.1l-1,3.1H106.1z"/>
	</g>
	<g class="st1">
		<path class="st2" d="M182.5,103.3h-13.3v13.3h-11.6v-13.3h-13.3V91.6h13.3V78.3h11.6v13.3h13.3V103.3z"/>
	</g>
</g>
<g>
	<path class="st0" d="M141.7,110.8c0,26.2-19.5,46.4-45.1,46.4H59.6V64.4h37.1C122.2,64.4,141.7,84.6,141.7,110.8z M121.3,110.8
		c0-15.9-10.1-26-24.7-26H80.8v52h15.9C111.2,136.8,121.3,126.7,121.3,110.8z"/>
</g>
</svg>
