<?xml version="1.0" encoding="utf-8"?>
<!-- Generator: Adobe Illustrator 21.0.0, SVG Export Plug-In . SVG Version: 6.00 Build 0)  -->
<svg version="1.1" id="Layer_1" xmlns="http://www.w3.org/2000/svg" xmlns:xlink="http://www.w3.org/1999/xlink" x="0px" y="0px"
	 viewBox="0 0 438.5 694.3" style="enable-background:new 0 0 438.5 694.3;" xml:space="preserve">
<style type="text/css">
	.st0{fill:none;}
	.st1{fill:none;stroke:#231F20;stroke-width:0.3;stroke-linecap:square;}
	.st2{fill:#FFFFFF;}
	.st3{fill:#F2F2F2;}
	.st4{opacity:3.000000e-02;}
	.st5{fill:url(#SVGID_1_);}
	.st6{fill:url(#SVGID_2_);}
	.st7{fill:url(#SVGID_3_);}
	.st8{fill:url(#SVGID_4_);}
	.st9{fill:none;stroke:#FFFFFF;stroke-width:3.2275;stroke-miterlimit:10;}
	.st10{filter:url(#Adobe_OpacityMaskFilter);}
	.st11{opacity:0.22;mask:url(#SVGID_9_);}
	.st12{fill:#494949;}
	.st13{fill:none;stroke:#494949;stroke-width:3.2275;stroke-miterlimit:10;}
	.st14{fill:none;stroke:#D6D6D6;stroke-width:3.2275;stroke-miterlimit:10;}
	.st15{fill:none;stroke:#565656;stroke-width:1.6302;stroke-miterlimit:10;}
	.st16{fill:none;stroke:#A0A0A0;stroke-width:0.3164;stroke-miterlimit:10;}
	.st17{fill:#565656;}
	.st18{font-family:'Titillium-Bold';}
	.st19{font-size:15.0957px;}
	.st20{font-size:15.0952px;}
	.st21{fill:#ED406E;}
	.st22{font-family:'MyriadPro-Regular';}
	.st23{font-size:10.1167px;}
	.st24{fill:#D6D27F;}
	.st25{fill:#F63241;}
	.st26{font-family:'PeaceSans';}
	.st27{font-size:76.1603px;}
	.st28{fill:none;stroke:#212121;stroke-width:1.0578;stroke-miterlimit:10;}
	.st29{fill:#F6BB0A;}
	.st30{font-size:51.1764px;}
	.st31{fill:none;stroke:#212121;stroke-miterlimit:10;}
	.st32{fill:#FFD539;}
	.st33{fill:#F6BB0A;stroke:#161616;stroke-width:1.273;stroke-miterlimit:10;}
	.st34{fill:#F63241;stroke:#212121;stroke-width:1.273;stroke-miterlimit:10;}
	.st35{opacity:0.44;fill:#FFD539;enable-background:new    ;}
	.st36{fill:#EFEFEF;}
	.st37{opacity:0.44;fill:none;stroke:#191919;stroke-width:1.273;stroke-miterlimit:10;enable-background:new    ;}
	.st38{fill:none;stroke:#191919;stroke-width:1.273;stroke-miterlimit:10;}
	.st39{fill:none;stroke:#262626;stroke-width:1.273;stroke-miterlimit:10;}
	.st40{fill:#3C3C3B;}
	.st41{font-size:26.4949px;}
</style>
<pattern  y="694.3" width="72" height="74.8" patternUnits="userSpaceOnUse" id="SVGID_5_" viewBox="72.1 -74.8 72 74.8" style="overflow:visible;">
	<g>
		<rect x="72.1" y="-74.8" class="st0" width="72" height="74.8"/>
		<g>
			<rect x="72.1" y="-74.8" class="st0" width="72" height="74.8"/>
			<g>
				<line class="st1" x1="144.1" y1="-74" x2="216.1" y2="-74"/>
				<line class="st1" x1="144.1" y1="-72.3" x2="216.1" y2="-72.3"/>
				<line class="st1" x1="144.1" y1="-70.6" x2="216.1" y2="-70.6"/>
				<line class="st1" x1="144.1" y1="-68.8" x2="216.1" y2="-68.8"/>
				<line class="st1" x1="144.1" y1="-67.1" x2="216.1" y2="-67.1"/>
				<line class="st1" x1="144.1" y1="-65.5" x2="216.1" y2="-65.5"/>
				<line class="st1" x1="144.1" y1="-63.8" x2="216.1" y2="-63.8"/>
				<line class="st1" x1="144.1" y1="-62" x2="216.1" y2="-62"/>
				<line class="st1" x1="144.1" y1="-60.3" x2="216.1" y2="-60.3"/>
				<line class="st1" x1="144.1" y1="-58.6" x2="216.1" y2="-58.6"/>
				<line class="st1" x1="144.1" y1="-57" x2="216.1" y2="-57"/>
				<line class="st1" x1="144.1" y1="-55.3" x2="216.1" y2="-55.3"/>
				<line class="st1" x1="144.1" y1="-53.6" x2="216.1" y2="-53.6"/>
				<line class="st1" x1="144.1" y1="-51.9" x2="216.1" y2="-51.9"/>
				<line class="st1" x1="144.1" y1="-50.2" x2="216.1" y2="-50.2"/>
				<line class="st1" x1="144.1" y1="-48.5" x2="216.1" y2="-48.5"/>
				<line class="st1" x1="144.1" y1="-46.8" x2="216.1" y2="-46.8"/>
				<line class="st1" x1="144.1" y1="-45.1" x2="216.1" y2="-45.1"/>
				<line class="st1" x1="144.1" y1="-43.4" x2="216.1" y2="-43.4"/>
				<line class="st1" x1="144.1" y1="-41.7" x2="216.1" y2="-41.7"/>
				<line class="st1" x1="144.1" y1="-40" x2="216.1" y2="-40"/>
				<line class="st1" x1="144.1" y1="-38.3" x2="216.1" y2="-38.3"/>
				<line class="st1" x1="144.1" y1="-36.6" x2="216.1" y2="-36.6"/>
				<line class="st1" x1="144.1" y1="-34.9" x2="216.1" y2="-34.9"/>
				<line class="st1" x1="144.1" y1="-33.2" x2="216.1" y2="-33.2"/>
				<line class="st1" x1="144.1" y1="-31.5" x2="216.1" y2="-31.5"/>
				<line class="st1" x1="144.1" y1="-29.8" x2="216.1" y2="-29.8"/>
				<line class="st1" x1="144.1" y1="-28.1" x2="216.1" y2="-28.1"/>
				<line class="st1" x1="144.1" y1="-26.4" x2="216.1" y2="-26.4"/>
				<line class="st1" x1="144.1" y1="-24.7" x2="216.1" y2="-24.7"/>
				<line class="st1" x1="144.1" y1="-23" x2="216.1" y2="-23"/>
				<line class="st1" x1="144.1" y1="-21.3" x2="216.1" y2="-21.3"/>
				<line class="st1" x1="144.1" y1="-19.6" x2="216.1" y2="-19.6"/>
				<line class="st1" x1="144.1" y1="-17.9" x2="216.1" y2="-17.9"/>
				<line class="st1" x1="144.1" y1="-16.2" x2="216.1" y2="-16.2"/>
				<line class="st1" x1="144.1" y1="-14.5" x2="216.1" y2="-14.5"/>
				<line class="st1" x1="144.1" y1="-12.8" x2="216.1" y2="-12.8"/>
				<line class="st1" x1="144.1" y1="-11.1" x2="216.1" y2="-11.1"/>
				<line class="st1" x1="144.1" y1="-9.4" x2="216.1" y2="-9.4"/>
				<line class="st1" x1="144.1" y1="-7.7" x2="216.1" y2="-7.7"/>
				<line class="st1" x1="144.1" y1="-6" x2="216.1" y2="-6"/>
				<line class="st1" x1="144.1" y1="-4.3" x2="216.1" y2="-4.3"/>
				<line class="st1" x1="144.1" y1="-2.6" x2="216.1" y2="-2.6"/>
				<line class="st1" x1="144.1" y1="-0.9" x2="216.1" y2="-0.9"/>
			</g>
			<g>
				<line class="st1" x1="72.1" y1="-74" x2="144.1" y2="-74"/>
				<line class="st1" x1="72.1" y1="-72.3" x2="144.1" y2="-72.3"/>
				<line class="st1" x1="72.1" y1="-70.6" x2="144.1" y2="-70.6"/>
				<line class="st1" x1="72.1" y1="-68.8" x2="144.1" y2="-68.8"/>
				<line class="st1" x1="72.1" y1="-67.1" x2="144.1" y2="-67.1"/>
				<line class="st1" x1="72.1" y1="-65.5" x2="144.1" y2="-65.5"/>
				<line class="st1" x1="72.1" y1="-63.8" x2="144.1" y2="-63.8"/>
				<line class="st1" x1="72.1" y1="-62" x2="144.1" y2="-62"/>
				<line class="st1" x1="72.1" y1="-60.3" x2="144.1" y2="-60.3"/>
				<line class="st1" x1="72.1" y1="-58.6" x2="144.1" y2="-58.6"/>
				<line class="st1" x1="72.1" y1="-57" x2="144.1" y2="-57"/>
				<line class="st1" x1="72.1" y1="-55.3" x2="144.1" y2="-55.3"/>
				<line class="st1" x1="72.1" y1="-53.6" x2="144.1" y2="-53.6"/>
				<line class="st1" x1="72.1" y1="-51.9" x2="144.1" y2="-51.9"/>
				<line class="st1" x1="72.1" y1="-50.2" x2="144.1" y2="-50.2"/>
				<line class="st1" x1="72.1" y1="-48.5" x2="144.1" y2="-48.5"/>
				<line class="st1" x1="72.1" y1="-46.8" x2="144.1" y2="-46.8"/>
				<line class="st1" x1="72.1" y1="-45.1" x2="144.1" y2="-45.1"/>
				<line class="st1" x1="72.1" y1="-43.4" x2="144.1" y2="-43.4"/>
				<line class="st1" x1="72.1" y1="-41.7" x2="144.1" y2="-41.7"/>
				<line class="st1" x1="72.1" y1="-40" x2="144.1" y2="-40"/>
				<line class="st1" x1="72.1" y1="-38.3" x2="144.1" y2="-38.3"/>
				<line class="st1" x1="72.1" y1="-36.6" x2="144.1" y2="-36.6"/>
				<line class="st1" x1="72.1" y1="-34.9" x2="144.1" y2="-34.9"/>
				<line class="st1" x1="72.1" y1="-33.2" x2="144.1" y2="-33.2"/>
				<line class="st1" x1="72.1" y1="-31.5" x2="144.1" y2="-31.5"/>
				<line class="st1" x1="72.1" y1="-29.8" x2="144.1" y2="-29.8"/>
				<line class="st1" x1="72.1" y1="-28.1" x2="144.1" y2="-28.1"/>
				<line class="st1" x1="72.1" y1="-26.4" x2="144.1" y2="-26.4"/>
				<line class="st1" x1="72.1" y1="-24.7" x2="144.1" y2="-24.7"/>
				<line class="st1" x1="72.1" y1="-23" x2="144.1" y2="-23"/>
				<line class="st1" x1="72.1" y1="-21.3" x2="144.1" y2="-21.3"/>
				<line class="st1" x1="72.1" y1="-19.6" x2="144.1" y2="-19.6"/>
				<line class="st1" x1="72.1" y1="-17.9" x2="144.1" y2="-17.9"/>
				<line class="st1" x1="72.1" y1="-16.2" x2="144.1" y2="-16.2"/>
				<line class="st1" x1="72.1" y1="-14.5" x2="144.1" y2="-14.5"/>
				<line class="st1" x1="72.1" y1="-12.8" x2="144.1" y2="-12.8"/>
				<line class="st1" x1="72.1" y1="-11.1" x2="144.1" y2="-11.1"/>
				<line class="st1" x1="72.1" y1="-9.4" x2="144.1" y2="-9.4"/>
				<line class="st1" x1="72.1" y1="-7.7" x2="144.1" y2="-7.7"/>
				<line class="st1" x1="72.1" y1="-6" x2="144.1" y2="-6"/>
				<line class="st1" x1="72.1" y1="-4.3" x2="144.1" y2="-4.3"/>
				<line class="st1" x1="72.1" y1="-2.6" x2="144.1" y2="-2.6"/>
				<line class="st1" x1="72.1" y1="-0.9" x2="144.1" y2="-0.9"/>
			</g>
			<g>
				<line class="st1" x1="0.2" y1="-74" x2="72.1" y2="-74"/>
				<line class="st1" x1="0.2" y1="-72.3" x2="72.1" y2="-72.3"/>
				<line class="st1" x1="0.2" y1="-70.6" x2="72.1" y2="-70.6"/>
				<line class="st1" x1="0.2" y1="-68.8" x2="72.1" y2="-68.8"/>
				<line class="st1" x1="0.2" y1="-67.1" x2="72.1" y2="-67.1"/>
				<line class="st1" x1="0.2" y1="-65.5" x2="72.1" y2="-65.5"/>
				<line class="st1" x1="0.2" y1="-63.8" x2="72.1" y2="-63.8"/>
				<line class="st1" x1="0.2" y1="-62" x2="72.1" y2="-62"/>
				<line class="st1" x1="0.2" y1="-60.3" x2="72.1" y2="-60.3"/>
				<line class="st1" x1="0.2" y1="-58.6" x2="72.1" y2="-58.6"/>
				<line class="st1" x1="0.2" y1="-57" x2="72.1" y2="-57"/>
				<line class="st1" x1="0.2" y1="-55.3" x2="72.1" y2="-55.3"/>
				<line class="st1" x1="0.2" y1="-53.6" x2="72.1" y2="-53.6"/>
				<line class="st1" x1="0.2" y1="-51.9" x2="72.1" y2="-51.9"/>
				<line class="st1" x1="0.2" y1="-50.2" x2="72.1" y2="-50.2"/>
				<line class="st1" x1="0.2" y1="-48.5" x2="72.1" y2="-48.5"/>
				<line class="st1" x1="0.2" y1="-46.8" x2="72.1" y2="-46.8"/>
				<line class="st1" x1="0.2" y1="-45.1" x2="72.1" y2="-45.1"/>
				<line class="st1" x1="0.2" y1="-43.4" x2="72.1" y2="-43.4"/>
				<line class="st1" x1="0.2" y1="-41.7" x2="72.1" y2="-41.7"/>
				<line class="st1" x1="0.2" y1="-40" x2="72.1" y2="-40"/>
				<line class="st1" x1="0.2" y1="-38.3" x2="72.1" y2="-38.3"/>
				<line class="st1" x1="0.2" y1="-36.6" x2="72.1" y2="-36.6"/>
				<line class="st1" x1="0.2" y1="-34.9" x2="72.1" y2="-34.9"/>
				<line class="st1" x1="0.2" y1="-33.2" x2="72.1" y2="-33.2"/>
				<line class="st1" x1="0.2" y1="-31.5" x2="72.1" y2="-31.5"/>
				<line class="st1" x1="0.2" y1="-29.8" x2="72.1" y2="-29.8"/>
				<line class="st1" x1="0.2" y1="-28.1" x2="72.1" y2="-28.1"/>
				<line class="st1" x1="0.2" y1="-26.4" x2="72.1" y2="-26.4"/>
				<line class="st1" x1="0.2" y1="-24.7" x2="72.1" y2="-24.7"/>
				<line class="st1" x1="0.2" y1="-23" x2="72.1" y2="-23"/>
				<line class="st1" x1="0.2" y1="-21.3" x2="72.1" y2="-21.3"/>
				<line class="st1" x1="0.2" y1="-19.6" x2="72.1" y2="-19.6"/>
				<line class="st1" x1="0.2" y1="-17.9" x2="72.1" y2="-17.9"/>
				<line class="st1" x1="0.2" y1="-16.2" x2="72.1" y2="-16.2"/>
				<line class="st1" x1="0.2" y1="-14.5" x2="72.1" y2="-14.5"/>
				<line class="st1" x1="0.2" y1="-12.8" x2="72.1" y2="-12.8"/>
				<line class="st1" x1="0.2" y1="-11.1" x2="72.1" y2="-11.1"/>
				<line class="st1" x1="0.2" y1="-9.4" x2="72.1" y2="-9.4"/>
				<line class="st1" x1="0.2" y1="-7.7" x2="72.1" y2="-7.7"/>
				<line class="st1" x1="0.2" y1="-6" x2="72.1" y2="-6"/>
				<line class="st1" x1="0.2" y1="-4.3" x2="72.1" y2="-4.3"/>
				<line class="st1" x1="0.2" y1="-2.6" x2="72.1" y2="-2.6"/>
				<line class="st1" x1="0.2" y1="-0.9" x2="72.1" y2="-0.9"/>
			</g>
		</g>
	</g>
</pattern>
<pattern  y="694.3" width="72" height="74.8" patternUnits="userSpaceOnUse" id="SVGID_6_" viewBox="72.1 -74.8 72 74.8" style="overflow:visible;">
	<g>
		<rect x="72.1" y="-74.8" class="st0" width="72" height="74.8"/>
		<g>
			<rect x="72.1" y="-74.8" class="st0" width="72" height="74.8"/>
			<g>
				<line class="st1" x1="144.1" y1="-74" x2="216.1" y2="-74"/>
				<line class="st1" x1="144.1" y1="-72.3" x2="216.1" y2="-72.3"/>
				<line class="st1" x1="144.1" y1="-70.6" x2="216.1" y2="-70.6"/>
				<line class="st1" x1="144.1" y1="-68.8" x2="216.1" y2="-68.8"/>
				<line class="st1" x1="144.1" y1="-67.1" x2="216.1" y2="-67.1"/>
				<line class="st1" x1="144.1" y1="-65.5" x2="216.1" y2="-65.5"/>
				<line class="st1" x1="144.1" y1="-63.8" x2="216.1" y2="-63.8"/>
				<line class="st1" x1="144.1" y1="-62" x2="216.1" y2="-62"/>
				<line class="st1" x1="144.1" y1="-60.3" x2="216.1" y2="-60.3"/>
				<line class="st1" x1="144.1" y1="-58.6" x2="216.1" y2="-58.6"/>
				<line class="st1" x1="144.1" y1="-57" x2="216.1" y2="-57"/>
				<line class="st1" x1="144.1" y1="-55.3" x2="216.1" y2="-55.3"/>
				<line class="st1" x1="144.1" y1="-53.6" x2="216.1" y2="-53.6"/>
				<line class="st1" x1="144.1" y1="-51.9" x2="216.1" y2="-51.9"/>
				<line class="st1" x1="144.1" y1="-50.2" x2="216.1" y2="-50.2"/>
				<line class="st1" x1="144.1" y1="-48.5" x2="216.1" y2="-48.5"/>
				<line class="st1" x1="144.1" y1="-46.8" x2="216.1" y2="-46.8"/>
				<line class="st1" x1="144.1" y1="-45.1" x2="216.1" y2="-45.1"/>
				<line class="st1" x1="144.1" y1="-43.4" x2="216.1" y2="-43.4"/>
				<line class="st1" x1="144.1" y1="-41.7" x2="216.1" y2="-41.7"/>
				<line class="st1" x1="144.1" y1="-40" x2="216.1" y2="-40"/>
				<line class="st1" x1="144.1" y1="-38.3" x2="216.1" y2="-38.3"/>
				<line class="st1" x1="144.1" y1="-36.6" x2="216.1" y2="-36.6"/>
				<line class="st1" x1="144.1" y1="-34.9" x2="216.1" y2="-34.9"/>
				<line class="st1" x1="144.1" y1="-33.2" x2="216.1" y2="-33.2"/>
				<line class="st1" x1="144.1" y1="-31.5" x2="216.1" y2="-31.5"/>
				<line class="st1" x1="144.1" y1="-29.8" x2="216.1" y2="-29.8"/>
				<line class="st1" x1="144.1" y1="-28.1" x2="216.1" y2="-28.1"/>
				<line class="st1" x1="144.1" y1="-26.4" x2="216.1" y2="-26.4"/>
				<line class="st1" x1="144.1" y1="-24.7" x2="216.1" y2="-24.7"/>
				<line class="st1" x1="144.1" y1="-23" x2="216.1" y2="-23"/>
				<line class="st1" x1="144.1" y1="-21.3" x2="216.1" y2="-21.3"/>
				<line class="st1" x1="144.1" y1="-19.6" x2="216.1" y2="-19.6"/>
				<line class="st1" x1="144.1" y1="-17.9" x2="216.1" y2="-17.9"/>
				<line class="st1" x1="144.1" y1="-16.2" x2="216.1" y2="-16.2"/>
				<line class="st1" x1="144.1" y1="-14.5" x2="216.1" y2="-14.5"/>
				<line class="st1" x1="144.1" y1="-12.8" x2="216.1" y2="-12.8"/>
				<line class="st1" x1="144.1" y1="-11.1" x2="216.1" y2="-11.1"/>
				<line class="st1" x1="144.1" y1="-9.4" x2="216.1" y2="-9.4"/>
				<line class="st1" x1="144.1" y1="-7.7" x2="216.1" y2="-7.7"/>
				<line class="st1" x1="144.1" y1="-6" x2="216.1" y2="-6"/>
				<line class="st1" x1="144.1" y1="-4.3" x2="216.1" y2="-4.3"/>
				<line class="st1" x1="144.1" y1="-2.6" x2="216.1" y2="-2.6"/>
				<line class="st1" x1="144.1" y1="-0.9" x2="216.1" y2="-0.9"/>
			</g>
			<g>
				<line class="st1" x1="72.1" y1="-74" x2="144.1" y2="-74"/>
				<line class="st1" x1="72.1" y1="-72.3" x2="144.1" y2="-72.3"/>
				<line class="st1" x1="72.1" y1="-70.6" x2="144.1" y2="-70.6"/>
				<line class="st1" x1="72.1" y1="-68.8" x2="144.1" y2="-68.8"/>
				<line class="st1" x1="72.1" y1="-67.1" x2="144.1" y2="-67.1"/>
				<line class="st1" x1="72.1" y1="-65.5" x2="144.1" y2="-65.5"/>
				<line class="st1" x1="72.1" y1="-63.8" x2="144.1" y2="-63.8"/>
				<line class="st1" x1="72.1" y1="-62" x2="144.1" y2="-62"/>
				<line class="st1" x1="72.1" y1="-60.3" x2="144.1" y2="-60.3"/>
				<line class="st1" x1="72.1" y1="-58.6" x2="144.1" y2="-58.6"/>
				<line class="st1" x1="72.1" y1="-57" x2="144.1" y2="-57"/>
				<line class="st1" x1="72.1" y1="-55.3" x2="144.1" y2="-55.3"/>
				<line class="st1" x1="72.1" y1="-53.6" x2="144.1" y2="-53.6"/>
				<line class="st1" x1="72.1" y1="-51.9" x2="144.1" y2="-51.9"/>
				<line class="st1" x1="72.1" y1="-50.2" x2="144.1" y2="-50.2"/>
				<line class="st1" x1="72.1" y1="-48.5" x2="144.1" y2="-48.5"/>
				<line class="st1" x1="72.1" y1="-46.8" x2="144.1" y2="-46.8"/>
				<line class="st1" x1="72.1" y1="-45.1" x2="144.1" y2="-45.1"/>
				<line class="st1" x1="72.1" y1="-43.4" x2="144.1" y2="-43.4"/>
				<line class="st1" x1="72.1" y1="-41.7" x2="144.1" y2="-41.7"/>
				<line class="st1" x1="72.1" y1="-40" x2="144.1" y2="-40"/>
				<line class="st1" x1="72.1" y1="-38.3" x2="144.1" y2="-38.3"/>
				<line class="st1" x1="72.1" y1="-36.6" x2="144.1" y2="-36.6"/>
				<line class="st1" x1="72.1" y1="-34.9" x2="144.1" y2="-34.9"/>
				<line class="st1" x1="72.1" y1="-33.2" x2="144.1" y2="-33.2"/>
				<line class="st1" x1="72.1" y1="-31.5" x2="144.1" y2="-31.5"/>
				<line class="st1" x1="72.1" y1="-29.8" x2="144.1" y2="-29.8"/>
				<line class="st1" x1="72.1" y1="-28.1" x2="144.1" y2="-28.1"/>
				<line class="st1" x1="72.1" y1="-26.4" x2="144.1" y2="-26.4"/>
				<line class="st1" x1="72.1" y1="-24.7" x2="144.1" y2="-24.7"/>
				<line class="st1" x1="72.1" y1="-23" x2="144.1" y2="-23"/>
				<line class="st1" x1="72.1" y1="-21.3" x2="144.1" y2="-21.3"/>
				<line class="st1" x1="72.1" y1="-19.6" x2="144.1" y2="-19.6"/>
				<line class="st1" x1="72.1" y1="-17.9" x2="144.1" y2="-17.9"/>
				<line class="st1" x1="72.1" y1="-16.2" x2="144.1" y2="-16.2"/>
				<line class="st1" x1="72.1" y1="-14.5" x2="144.1" y2="-14.5"/>
				<line class="st1" x1="72.1" y1="-12.8" x2="144.1" y2="-12.8"/>
				<line class="st1" x1="72.1" y1="-11.1" x2="144.1" y2="-11.1"/>
				<line class="st1" x1="72.1" y1="-9.4" x2="144.1" y2="-9.4"/>
				<line class="st1" x1="72.1" y1="-7.7" x2="144.1" y2="-7.7"/>
				<line class="st1" x1="72.1" y1="-6" x2="144.1" y2="-6"/>
				<line class="st1" x1="72.1" y1="-4.3" x2="144.1" y2="-4.3"/>
				<line class="st1" x1="72.1" y1="-2.6" x2="144.1" y2="-2.6"/>
				<line class="st1" x1="72.1" y1="-0.9" x2="144.1" y2="-0.9"/>
			</g>
			<g>
				<line class="st1" x1="0.2" y1="-74" x2="72.1" y2="-74"/>
				<line class="st1" x1="0.2" y1="-72.3" x2="72.1" y2="-72.3"/>
				<line class="st1" x1="0.2" y1="-70.6" x2="72.1" y2="-70.6"/>
				<line class="st1" x1="0.2" y1="-68.8" x2="72.1" y2="-68.8"/>
				<line class="st1" x1="0.2" y1="-67.1" x2="72.1" y2="-67.1"/>
				<line class="st1" x1="0.2" y1="-65.5" x2="72.1" y2="-65.5"/>
				<line class="st1" x1="0.2" y1="-63.8" x2="72.1" y2="-63.8"/>
				<line class="st1" x1="0.2" y1="-62" x2="72.1" y2="-62"/>
				<line class="st1" x1="0.2" y1="-60.3" x2="72.1" y2="-60.3"/>
				<line class="st1" x1="0.2" y1="-58.6" x2="72.1" y2="-58.6"/>
				<line class="st1" x1="0.2" y1="-57" x2="72.1" y2="-57"/>
				<line class="st1" x1="0.2" y1="-55.3" x2="72.1" y2="-55.3"/>
				<line class="st1" x1="0.2" y1="-53.6" x2="72.1" y2="-53.6"/>
				<line class="st1" x1="0.2" y1="-51.9" x2="72.1" y2="-51.9"/>
				<line class="st1" x1="0.2" y1="-50.2" x2="72.1" y2="-50.2"/>
				<line class="st1" x1="0.2" y1="-48.5" x2="72.1" y2="-48.5"/>
				<line class="st1" x1="0.2" y1="-46.8" x2="72.1" y2="-46.8"/>
				<line class="st1" x1="0.2" y1="-45.1" x2="72.1" y2="-45.1"/>
				<line class="st1" x1="0.2" y1="-43.4" x2="72.1" y2="-43.4"/>
				<line class="st1" x1="0.2" y1="-41.7" x2="72.1" y2="-41.7"/>
				<line class="st1" x1="0.2" y1="-40" x2="72.1" y2="-40"/>
				<line class="st1" x1="0.2" y1="-38.3" x2="72.1" y2="-38.3"/>
				<line class="st1" x1="0.2" y1="-36.6" x2="72.1" y2="-36.6"/>
				<line class="st1" x1="0.2" y1="-34.9" x2="72.1" y2="-34.9"/>
				<line class="st1" x1="0.2" y1="-33.2" x2="72.1" y2="-33.2"/>
				<line class="st1" x1="0.2" y1="-31.5" x2="72.1" y2="-31.5"/>
				<line class="st1" x1="0.2" y1="-29.8" x2="72.1" y2="-29.8"/>
				<line class="st1" x1="0.2" y1="-28.1" x2="72.1" y2="-28.1"/>
				<line class="st1" x1="0.2" y1="-26.4" x2="72.1" y2="-26.4"/>
				<line class="st1" x1="0.2" y1="-24.7" x2="72.1" y2="-24.7"/>
				<line class="st1" x1="0.2" y1="-23" x2="72.1" y2="-23"/>
				<line class="st1" x1="0.2" y1="-21.3" x2="72.1" y2="-21.3"/>
				<line class="st1" x1="0.2" y1="-19.6" x2="72.1" y2="-19.6"/>
				<line class="st1" x1="0.2" y1="-17.9" x2="72.1" y2="-17.9"/>
				<line class="st1" x1="0.2" y1="-16.2" x2="72.1" y2="-16.2"/>
				<line class="st1" x1="0.2" y1="-14.5" x2="72.1" y2="-14.5"/>
				<line class="st1" x1="0.2" y1="-12.8" x2="72.1" y2="-12.8"/>
				<line class="st1" x1="0.2" y1="-11.1" x2="72.1" y2="-11.1"/>
				<line class="st1" x1="0.2" y1="-9.4" x2="72.1" y2="-9.4"/>
				<line class="st1" x1="0.2" y1="-7.7" x2="72.1" y2="-7.7"/>
				<line class="st1" x1="0.2" y1="-6" x2="72.1" y2="-6"/>
				<line class="st1" x1="0.2" y1="-4.3" x2="72.1" y2="-4.3"/>
				<line class="st1" x1="0.2" y1="-2.6" x2="72.1" y2="-2.6"/>
				<line class="st1" x1="0.2" y1="-0.9" x2="72.1" y2="-0.9"/>
			</g>
		</g>
	</g>
</pattern>
<pattern  y="694.3" width="72" height="74.8" patternUnits="userSpaceOnUse" id="SVGID_7_" viewBox="72.1 -74.8 72 74.8" style="overflow:visible;">
	<g>
		<rect x="72.1" y="-74.8" class="st0" width="72" height="74.8"/>
		<g>
			<rect x="72.1" y="-74.8" class="st0" width="72" height="74.8"/>
			<g>
				<line class="st1" x1="144.1" y1="-74" x2="216.1" y2="-74"/>
				<line class="st1" x1="144.1" y1="-72.3" x2="216.1" y2="-72.3"/>
				<line class="st1" x1="144.1" y1="-70.6" x2="216.1" y2="-70.6"/>
				<line class="st1" x1="144.1" y1="-68.8" x2="216.1" y2="-68.8"/>
				<line class="st1" x1="144.1" y1="-67.1" x2="216.1" y2="-67.1"/>
				<line class="st1" x1="144.1" y1="-65.5" x2="216.1" y2="-65.5"/>
				<line class="st1" x1="144.1" y1="-63.8" x2="216.1" y2="-63.8"/>
				<line class="st1" x1="144.1" y1="-62" x2="216.1" y2="-62"/>
				<line class="st1" x1="144.1" y1="-60.3" x2="216.1" y2="-60.3"/>
				<line class="st1" x1="144.1" y1="-58.6" x2="216.1" y2="-58.6"/>
				<line class="st1" x1="144.1" y1="-57" x2="216.1" y2="-57"/>
				<line class="st1" x1="144.1" y1="-55.3" x2="216.1" y2="-55.3"/>
				<line class="st1" x1="144.1" y1="-53.6" x2="216.1" y2="-53.6"/>
				<line class="st1" x1="144.1" y1="-51.9" x2="216.1" y2="-51.9"/>
				<line class="st1" x1="144.1" y1="-50.2" x2="216.1" y2="-50.2"/>
				<line class="st1" x1="144.1" y1="-48.5" x2="216.1" y2="-48.5"/>
				<line class="st1" x1="144.1" y1="-46.8" x2="216.1" y2="-46.8"/>
				<line class="st1" x1="144.1" y1="-45.1" x2="216.1" y2="-45.1"/>
				<line class="st1" x1="144.1" y1="-43.4" x2="216.1" y2="-43.4"/>
				<line class="st1" x1="144.1" y1="-41.7" x2="216.1" y2="-41.7"/>
				<line class="st1" x1="144.1" y1="-40" x2="216.1" y2="-40"/>
				<line class="st1" x1="144.1" y1="-38.3" x2="216.1" y2="-38.3"/>
				<line class="st1" x1="144.1" y1="-36.6" x2="216.1" y2="-36.6"/>
				<line class="st1" x1="144.1" y1="-34.9" x2="216.1" y2="-34.9"/>
				<line class="st1" x1="144.1" y1="-33.2" x2="216.1" y2="-33.2"/>
				<line class="st1" x1="144.1" y1="-31.5" x2="216.1" y2="-31.5"/>
				<line class="st1" x1="144.1" y1="-29.8" x2="216.1" y2="-29.8"/>
				<line class="st1" x1="144.1" y1="-28.1" x2="216.1" y2="-28.1"/>
				<line class="st1" x1="144.1" y1="-26.4" x2="216.1" y2="-26.4"/>
				<line class="st1" x1="144.1" y1="-24.7" x2="216.1" y2="-24.7"/>
				<line class="st1" x1="144.1" y1="-23" x2="216.1" y2="-23"/>
				<line class="st1" x1="144.1" y1="-21.3" x2="216.1" y2="-21.3"/>
				<line class="st1" x1="144.1" y1="-19.6" x2="216.1" y2="-19.6"/>
				<line class="st1" x1="144.1" y1="-17.9" x2="216.1" y2="-17.9"/>
				<line class="st1" x1="144.1" y1="-16.2" x2="216.1" y2="-16.2"/>
				<line class="st1" x1="144.1" y1="-14.5" x2="216.1" y2="-14.5"/>
				<line class="st1" x1="144.1" y1="-12.8" x2="216.1" y2="-12.8"/>
				<line class="st1" x1="144.1" y1="-11.1" x2="216.1" y2="-11.1"/>
				<line class="st1" x1="144.1" y1="-9.4" x2="216.1" y2="-9.4"/>
				<line class="st1" x1="144.1" y1="-7.7" x2="216.1" y2="-7.7"/>
				<line class="st1" x1="144.1" y1="-6" x2="216.1" y2="-6"/>
				<line class="st1" x1="144.1" y1="-4.3" x2="216.1" y2="-4.3"/>
				<line class="st1" x1="144.1" y1="-2.6" x2="216.1" y2="-2.6"/>
				<line class="st1" x1="144.1" y1="-0.9" x2="216.1" y2="-0.9"/>
			</g>
			<g>
				<line class="st1" x1="72.1" y1="-74" x2="144.1" y2="-74"/>
				<line class="st1" x1="72.1" y1="-72.3" x2="144.1" y2="-72.3"/>
				<line class="st1" x1="72.1" y1="-70.6" x2="144.1" y2="-70.6"/>
				<line class="st1" x1="72.1" y1="-68.8" x2="144.1" y2="-68.8"/>
				<line class="st1" x1="72.1" y1="-67.1" x2="144.1" y2="-67.1"/>
				<line class="st1" x1="72.1" y1="-65.5" x2="144.1" y2="-65.5"/>
				<line class="st1" x1="72.1" y1="-63.8" x2="144.1" y2="-63.8"/>
				<line class="st1" x1="72.1" y1="-62" x2="144.1" y2="-62"/>
				<line class="st1" x1="72.1" y1="-60.3" x2="144.1" y2="-60.3"/>
				<line class="st1" x1="72.1" y1="-58.6" x2="144.1" y2="-58.6"/>
				<line class="st1" x1="72.1" y1="-57" x2="144.1" y2="-57"/>
				<line class="st1" x1="72.1" y1="-55.3" x2="144.1" y2="-55.3"/>
				<line class="st1" x1="72.1" y1="-53.6" x2="144.1" y2="-53.6"/>
				<line class="st1" x1="72.1" y1="-51.9" x2="144.1" y2="-51.9"/>
				<line class="st1" x1="72.1" y1="-50.2" x2="144.1" y2="-50.2"/>
				<line class="st1" x1="72.1" y1="-48.5" x2="144.1" y2="-48.5"/>
				<line class="st1" x1="72.1" y1="-46.8" x2="144.1" y2="-46.8"/>
				<line class="st1" x1="72.1" y1="-45.1" x2="144.1" y2="-45.1"/>
				<line class="st1" x1="72.1" y1="-43.4" x2="144.1" y2="-43.4"/>
				<line class="st1" x1="72.1" y1="-41.7" x2="144.1" y2="-41.7"/>
				<line class="st1" x1="72.1" y1="-40" x2="144.1" y2="-40"/>
				<line class="st1" x1="72.1" y1="-38.3" x2="144.1" y2="-38.3"/>
				<line class="st1" x1="72.1" y1="-36.6" x2="144.1" y2="-36.6"/>
				<line class="st1" x1="72.1" y1="-34.9" x2="144.1" y2="-34.9"/>
				<line class="st1" x1="72.1" y1="-33.2" x2="144.1" y2="-33.2"/>
				<line class="st1" x1="72.1" y1="-31.5" x2="144.1" y2="-31.5"/>
				<line class="st1" x1="72.1" y1="-29.8" x2="144.1" y2="-29.8"/>
				<line class="st1" x1="72.1" y1="-28.1" x2="144.1" y2="-28.1"/>
				<line class="st1" x1="72.1" y1="-26.4" x2="144.1" y2="-26.4"/>
				<line class="st1" x1="72.1" y1="-24.7" x2="144.1" y2="-24.7"/>
				<line class="st1" x1="72.1" y1="-23" x2="144.1" y2="-23"/>
				<line class="st1" x1="72.1" y1="-21.3" x2="144.1" y2="-21.3"/>
				<line class="st1" x1="72.1" y1="-19.6" x2="144.1" y2="-19.6"/>
				<line class="st1" x1="72.1" y1="-17.9" x2="144.1" y2="-17.9"/>
				<line class="st1" x1="72.1" y1="-16.2" x2="144.1" y2="-16.2"/>
				<line class="st1" x1="72.1" y1="-14.5" x2="144.1" y2="-14.5"/>
				<line class="st1" x1="72.1" y1="-12.8" x2="144.1" y2="-12.8"/>
				<line class="st1" x1="72.1" y1="-11.1" x2="144.1" y2="-11.1"/>
				<line class="st1" x1="72.1" y1="-9.4" x2="144.1" y2="-9.4"/>
				<line class="st1" x1="72.1" y1="-7.7" x2="144.1" y2="-7.7"/>
				<line class="st1" x1="72.1" y1="-6" x2="144.1" y2="-6"/>
				<line class="st1" x1="72.1" y1="-4.3" x2="144.1" y2="-4.3"/>
				<line class="st1" x1="72.1" y1="-2.6" x2="144.1" y2="-2.6"/>
				<line class="st1" x1="72.1" y1="-0.9" x2="144.1" y2="-0.9"/>
			</g>
			<g>
				<line class="st1" x1="0.2" y1="-74" x2="72.1" y2="-74"/>
				<line class="st1" x1="0.2" y1="-72.3" x2="72.1" y2="-72.3"/>
				<line class="st1" x1="0.2" y1="-70.6" x2="72.1" y2="-70.6"/>
				<line class="st1" x1="0.2" y1="-68.8" x2="72.1" y2="-68.8"/>
				<line class="st1" x1="0.2" y1="-67.1" x2="72.1" y2="-67.1"/>
				<line class="st1" x1="0.2" y1="-65.5" x2="72.1" y2="-65.5"/>
				<line class="st1" x1="0.2" y1="-63.8" x2="72.1" y2="-63.8"/>
				<line class="st1" x1="0.2" y1="-62" x2="72.1" y2="-62"/>
				<line class="st1" x1="0.2" y1="-60.3" x2="72.1" y2="-60.3"/>
				<line class="st1" x1="0.2" y1="-58.6" x2="72.1" y2="-58.6"/>
				<line class="st1" x1="0.2" y1="-57" x2="72.1" y2="-57"/>
				<line class="st1" x1="0.2" y1="-55.3" x2="72.1" y2="-55.3"/>
				<line class="st1" x1="0.2" y1="-53.6" x2="72.1" y2="-53.6"/>
				<line class="st1" x1="0.2" y1="-51.9" x2="72.1" y2="-51.9"/>
				<line class="st1" x1="0.2" y1="-50.2" x2="72.1" y2="-50.2"/>
				<line class="st1" x1="0.2" y1="-48.5" x2="72.1" y2="-48.5"/>
				<line class="st1" x1="0.2" y1="-46.8" x2="72.1" y2="-46.8"/>
				<line class="st1" x1="0.2" y1="-45.1" x2="72.1" y2="-45.1"/>
				<line class="st1" x1="0.2" y1="-43.4" x2="72.1" y2="-43.4"/>
				<line class="st1" x1="0.2" y1="-41.7" x2="72.1" y2="-41.7"/>
				<line class="st1" x1="0.2" y1="-40" x2="72.1" y2="-40"/>
				<line class="st1" x1="0.2" y1="-38.3" x2="72.1" y2="-38.3"/>
				<line class="st1" x1="0.2" y1="-36.6" x2="72.1" y2="-36.6"/>
				<line class="st1" x1="0.2" y1="-34.9" x2="72.1" y2="-34.9"/>
				<line class="st1" x1="0.2" y1="-33.2" x2="72.1" y2="-33.2"/>
				<line class="st1" x1="0.2" y1="-31.5" x2="72.1" y2="-31.5"/>
				<line class="st1" x1="0.2" y1="-29.8" x2="72.1" y2="-29.8"/>
				<line class="st1" x1="0.2" y1="-28.1" x2="72.1" y2="-28.1"/>
				<line class="st1" x1="0.2" y1="-26.4" x2="72.1" y2="-26.4"/>
				<line class="st1" x1="0.2" y1="-24.7" x2="72.1" y2="-24.7"/>
				<line class="st1" x1="0.2" y1="-23" x2="72.1" y2="-23"/>
				<line class="st1" x1="0.2" y1="-21.3" x2="72.1" y2="-21.3"/>
				<line class="st1" x1="0.2" y1="-19.6" x2="72.1" y2="-19.6"/>
				<line class="st1" x1="0.2" y1="-17.9" x2="72.1" y2="-17.9"/>
				<line class="st1" x1="0.2" y1="-16.2" x2="72.1" y2="-16.2"/>
				<line class="st1" x1="0.2" y1="-14.5" x2="72.1" y2="-14.5"/>
				<line class="st1" x1="0.2" y1="-12.8" x2="72.1" y2="-12.8"/>
				<line class="st1" x1="0.2" y1="-11.1" x2="72.1" y2="-11.1"/>
				<line class="st1" x1="0.2" y1="-9.4" x2="72.1" y2="-9.4"/>
				<line class="st1" x1="0.2" y1="-7.7" x2="72.1" y2="-7.7"/>
				<line class="st1" x1="0.2" y1="-6" x2="72.1" y2="-6"/>
				<line class="st1" x1="0.2" y1="-4.3" x2="72.1" y2="-4.3"/>
				<line class="st1" x1="0.2" y1="-2.6" x2="72.1" y2="-2.6"/>
				<line class="st1" x1="0.2" y1="-0.9" x2="72.1" y2="-0.9"/>
			</g>
		</g>
	</g>
</pattern>
<pattern  y="694.3" width="72" height="74.8" patternUnits="userSpaceOnUse" id="SVGID_8_" viewBox="72.1 -74.8 72 74.8" style="overflow:visible;">
	<g>
		<rect x="72.1" y="-74.8" class="st0" width="72" height="74.8"/>
		<g>
			<rect x="72.1" y="-74.8" class="st0" width="72" height="74.8"/>
			<g>
				<line class="st1" x1="144.1" y1="-74" x2="216.1" y2="-74"/>
				<line class="st1" x1="144.1" y1="-72.3" x2="216.1" y2="-72.3"/>
				<line class="st1" x1="144.1" y1="-70.6" x2="216.1" y2="-70.6"/>
				<line class="st1" x1="144.1" y1="-68.8" x2="216.1" y2="-68.8"/>
				<line class="st1" x1="144.1" y1="-67.1" x2="216.1" y2="-67.1"/>
				<line class="st1" x1="144.1" y1="-65.5" x2="216.1" y2="-65.5"/>
				<line class="st1" x1="144.1" y1="-63.8" x2="216.1" y2="-63.8"/>
				<line class="st1" x1="144.1" y1="-62" x2="216.1" y2="-62"/>
				<line class="st1" x1="144.1" y1="-60.3" x2="216.1" y2="-60.3"/>
				<line class="st1" x1="144.1" y1="-58.6" x2="216.1" y2="-58.6"/>
				<line class="st1" x1="144.1" y1="-57" x2="216.1" y2="-57"/>
				<line class="st1" x1="144.1" y1="-55.3" x2="216.1" y2="-55.3"/>
				<line class="st1" x1="144.1" y1="-53.6" x2="216.1" y2="-53.6"/>
				<line class="st1" x1="144.1" y1="-51.9" x2="216.1" y2="-51.9"/>
				<line class="st1" x1="144.1" y1="-50.2" x2="216.1" y2="-50.2"/>
				<line class="st1" x1="144.1" y1="-48.5" x2="216.1" y2="-48.5"/>
				<line class="st1" x1="144.1" y1="-46.8" x2="216.1" y2="-46.8"/>
				<line class="st1" x1="144.1" y1="-45.1" x2="216.1" y2="-45.1"/>
				<line class="st1" x1="144.1" y1="-43.4" x2="216.1" y2="-43.4"/>
				<line class="st1" x1="144.1" y1="-41.7" x2="216.1" y2="-41.7"/>
				<line class="st1" x1="144.1" y1="-40" x2="216.1" y2="-40"/>
				<line class="st1" x1="144.1" y1="-38.3" x2="216.1" y2="-38.3"/>
				<line class="st1" x1="144.1" y1="-36.6" x2="216.1" y2="-36.6"/>
				<line class="st1" x1="144.1" y1="-34.9" x2="216.1" y2="-34.9"/>
				<line class="st1" x1="144.1" y1="-33.2" x2="216.1" y2="-33.2"/>
				<line class="st1" x1="144.1" y1="-31.5" x2="216.1" y2="-31.5"/>
				<line class="st1" x1="144.1" y1="-29.8" x2="216.1" y2="-29.8"/>
				<line class="st1" x1="144.1" y1="-28.1" x2="216.1" y2="-28.1"/>
				<line class="st1" x1="144.1" y1="-26.4" x2="216.1" y2="-26.4"/>
				<line class="st1" x1="144.1" y1="-24.7" x2="216.1" y2="-24.7"/>
				<line class="st1" x1="144.1" y1="-23" x2="216.1" y2="-23"/>
				<line class="st1" x1="144.1" y1="-21.3" x2="216.1" y2="-21.3"/>
				<line class="st1" x1="144.1" y1="-19.6" x2="216.1" y2="-19.6"/>
				<line class="st1" x1="144.1" y1="-17.9" x2="216.1" y2="-17.9"/>
				<line class="st1" x1="144.1" y1="-16.2" x2="216.1" y2="-16.2"/>
				<line class="st1" x1="144.1" y1="-14.5" x2="216.1" y2="-14.5"/>
				<line class="st1" x1="144.1" y1="-12.8" x2="216.1" y2="-12.8"/>
				<line class="st1" x1="144.1" y1="-11.1" x2="216.1" y2="-11.1"/>
				<line class="st1" x1="144.1" y1="-9.4" x2="216.1" y2="-9.4"/>
				<line class="st1" x1="144.1" y1="-7.7" x2="216.1" y2="-7.7"/>
				<line class="st1" x1="144.1" y1="-6" x2="216.1" y2="-6"/>
				<line class="st1" x1="144.1" y1="-4.3" x2="216.1" y2="-4.3"/>
				<line class="st1" x1="144.1" y1="-2.6" x2="216.1" y2="-2.6"/>
				<line class="st1" x1="144.1" y1="-0.9" x2="216.1" y2="-0.9"/>
			</g>
			<g>
				<line class="st1" x1="72.1" y1="-74" x2="144.1" y2="-74"/>
				<line class="st1" x1="72.1" y1="-72.3" x2="144.1" y2="-72.3"/>
				<line class="st1" x1="72.1" y1="-70.6" x2="144.1" y2="-70.6"/>
				<line class="st1" x1="72.1" y1="-68.8" x2="144.1" y2="-68.8"/>
				<line class="st1" x1="72.1" y1="-67.1" x2="144.1" y2="-67.1"/>
				<line class="st1" x1="72.1" y1="-65.5" x2="144.1" y2="-65.5"/>
				<line class="st1" x1="72.1" y1="-63.8" x2="144.1" y2="-63.8"/>
				<line class="st1" x1="72.1" y1="-62" x2="144.1" y2="-62"/>
				<line class="st1" x1="72.1" y1="-60.3" x2="144.1" y2="-60.3"/>
				<line class="st1" x1="72.1" y1="-58.6" x2="144.1" y2="-58.6"/>
				<line class="st1" x1="72.1" y1="-57" x2="144.1" y2="-57"/>
				<line class="st1" x1="72.1" y1="-55.3" x2="144.1" y2="-55.3"/>
				<line class="st1" x1="72.1" y1="-53.6" x2="144.1" y2="-53.6"/>
				<line class="st1" x1="72.1" y1="-51.9" x2="144.1" y2="-51.9"/>
				<line class="st1" x1="72.1" y1="-50.2" x2="144.1" y2="-50.2"/>
				<line class="st1" x1="72.1" y1="-48.5" x2="144.1" y2="-48.5"/>
				<line class="st1" x1="72.1" y1="-46.8" x2="144.1" y2="-46.8"/>
				<line class="st1" x1="72.1" y1="-45.1" x2="144.1" y2="-45.1"/>
				<line class="st1" x1="72.1" y1="-43.4" x2="144.1" y2="-43.4"/>
				<line class="st1" x1="72.1" y1="-41.7" x2="144.1" y2="-41.7"/>
				<line class="st1" x1="72.1" y1="-40" x2="144.1" y2="-40"/>
				<line class="st1" x1="72.1" y1="-38.3" x2="144.1" y2="-38.3"/>
				<line class="st1" x1="72.1" y1="-36.6" x2="144.1" y2="-36.6"/>
				<line class="st1" x1="72.1" y1="-34.9" x2="144.1" y2="-34.9"/>
				<line class="st1" x1="72.1" y1="-33.2" x2="144.1" y2="-33.2"/>
				<line class="st1" x1="72.1" y1="-31.5" x2="144.1" y2="-31.5"/>
				<line class="st1" x1="72.1" y1="-29.8" x2="144.1" y2="-29.8"/>
				<line class="st1" x1="72.1" y1="-28.1" x2="144.1" y2="-28.1"/>
				<line class="st1" x1="72.1" y1="-26.4" x2="144.1" y2="-26.4"/>
				<line class="st1" x1="72.1" y1="-24.7" x2="144.1" y2="-24.7"/>
				<line class="st1" x1="72.1" y1="-23" x2="144.1" y2="-23"/>
				<line class="st1" x1="72.1" y1="-21.3" x2="144.1" y2="-21.3"/>
				<line class="st1" x1="72.1" y1="-19.6" x2="144.1" y2="-19.6"/>
				<line class="st1" x1="72.1" y1="-17.9" x2="144.1" y2="-17.9"/>
				<line class="st1" x1="72.1" y1="-16.2" x2="144.1" y2="-16.2"/>
				<line class="st1" x1="72.1" y1="-14.5" x2="144.1" y2="-14.5"/>
				<line class="st1" x1="72.1" y1="-12.8" x2="144.1" y2="-12.8"/>
				<line class="st1" x1="72.1" y1="-11.1" x2="144.1" y2="-11.1"/>
				<line class="st1" x1="72.1" y1="-9.4" x2="144.1" y2="-9.4"/>
				<line class="st1" x1="72.1" y1="-7.7" x2="144.1" y2="-7.7"/>
				<line class="st1" x1="72.1" y1="-6" x2="144.1" y2="-6"/>
				<line class="st1" x1="72.1" y1="-4.3" x2="144.1" y2="-4.3"/>
				<line class="st1" x1="72.1" y1="-2.6" x2="144.1" y2="-2.6"/>
				<line class="st1" x1="72.1" y1="-0.9" x2="144.1" y2="-0.9"/>
			</g>
			<g>
				<line class="st1" x1="0.2" y1="-74" x2="72.1" y2="-74"/>
				<line class="st1" x1="0.2" y1="-72.3" x2="72.1" y2="-72.3"/>
				<line class="st1" x1="0.2" y1="-70.6" x2="72.1" y2="-70.6"/>
				<line class="st1" x1="0.2" y1="-68.8" x2="72.1" y2="-68.8"/>
				<line class="st1" x1="0.2" y1="-67.1" x2="72.1" y2="-67.1"/>
				<line class="st1" x1="0.2" y1="-65.5" x2="72.1" y2="-65.5"/>
				<line class="st1" x1="0.2" y1="-63.8" x2="72.1" y2="-63.8"/>
				<line class="st1" x1="0.2" y1="-62" x2="72.1" y2="-62"/>
				<line class="st1" x1="0.2" y1="-60.3" x2="72.1" y2="-60.3"/>
				<line class="st1" x1="0.2" y1="-58.6" x2="72.1" y2="-58.6"/>
				<line class="st1" x1="0.2" y1="-57" x2="72.1" y2="-57"/>
				<line class="st1" x1="0.2" y1="-55.3" x2="72.1" y2="-55.3"/>
				<line class="st1" x1="0.2" y1="-53.6" x2="72.1" y2="-53.6"/>
				<line class="st1" x1="0.2" y1="-51.9" x2="72.1" y2="-51.9"/>
				<line class="st1" x1="0.2" y1="-50.2" x2="72.1" y2="-50.2"/>
				<line class="st1" x1="0.2" y1="-48.5" x2="72.1" y2="-48.5"/>
				<line class="st1" x1="0.2" y1="-46.8" x2="72.1" y2="-46.8"/>
				<line class="st1" x1="0.2" y1="-45.1" x2="72.1" y2="-45.1"/>
				<line class="st1" x1="0.2" y1="-43.4" x2="72.1" y2="-43.4"/>
				<line class="st1" x1="0.2" y1="-41.7" x2="72.1" y2="-41.7"/>
				<line class="st1" x1="0.2" y1="-40" x2="72.1" y2="-40"/>
				<line class="st1" x1="0.2" y1="-38.3" x2="72.1" y2="-38.3"/>
				<line class="st1" x1="0.2" y1="-36.6" x2="72.1" y2="-36.6"/>
				<line class="st1" x1="0.2" y1="-34.9" x2="72.1" y2="-34.9"/>
				<line class="st1" x1="0.2" y1="-33.2" x2="72.1" y2="-33.2"/>
				<line class="st1" x1="0.2" y1="-31.5" x2="72.1" y2="-31.5"/>
				<line class="st1" x1="0.2" y1="-29.8" x2="72.1" y2="-29.8"/>
				<line class="st1" x1="0.2" y1="-28.1" x2="72.1" y2="-28.1"/>
				<line class="st1" x1="0.2" y1="-26.4" x2="72.1" y2="-26.4"/>
				<line class="st1" x1="0.2" y1="-24.7" x2="72.1" y2="-24.7"/>
				<line class="st1" x1="0.2" y1="-23" x2="72.1" y2="-23"/>
				<line class="st1" x1="0.2" y1="-21.3" x2="72.1" y2="-21.3"/>
				<line class="st1" x1="0.2" y1="-19.6" x2="72.1" y2="-19.6"/>
				<line class="st1" x1="0.2" y1="-17.9" x2="72.1" y2="-17.9"/>
				<line class="st1" x1="0.2" y1="-16.2" x2="72.1" y2="-16.2"/>
				<line class="st1" x1="0.2" y1="-14.5" x2="72.1" y2="-14.5"/>
				<line class="st1" x1="0.2" y1="-12.8" x2="72.1" y2="-12.8"/>
				<line class="st1" x1="0.2" y1="-11.1" x2="72.1" y2="-11.1"/>
				<line class="st1" x1="0.2" y1="-9.4" x2="72.1" y2="-9.4"/>
				<line class="st1" x1="0.2" y1="-7.7" x2="72.1" y2="-7.7"/>
				<line class="st1" x1="0.2" y1="-6" x2="72.1" y2="-6"/>
				<line class="st1" x1="0.2" y1="-4.3" x2="72.1" y2="-4.3"/>
				<line class="st1" x1="0.2" y1="-2.6" x2="72.1" y2="-2.6"/>
				<line class="st1" x1="0.2" y1="-0.9" x2="72.1" y2="-0.9"/>
			</g>
		</g>
	</g>
</pattern>
<rect x="-0.4" y="1.1" class="st2" width="438.8" height="693.6"/>
<rect x="0.1" y="75.4" class="st3" width="438.8" height="263.8"/>
<path class="st3" d="M438.9,188.9v140.2c0,1.6-0.2,3.1-0.5,4.6c-2.5,11.9-14.3,20.9-28.6,20.9H29.1c-14.9,0-27.2-10-28.9-22.7
	C0.1,331,0,330,0,329.1V188.9c0-0.8,0.1-1.7,0.1-2.5c0-0.1,0-0.2,0-0.4C1.7,173.2,14,163.3,29,163.3h380.8c14.3,0,26.1,9,28.6,20.9
	C438.8,185.8,438.9,187.3,438.9,188.9z"/>
<g class="st4">
	
		<pattern  id="SVGID_1_" xlink:href="#SVGID_5_" patternTransform="matrix(1.8444 0 0 -1.6682 1142.8634 -21148.9824)"  class="st4">
	</pattern>
	<rect x="0.3" y="75.9" class="st5" width="231.2" height="151"/>
	
		<pattern  id="SVGID_2_" xlink:href="#SVGID_6_" patternTransform="matrix(1.8444 0 0 -1.6682 1084.2999 -21148.9824)"  class="st4">
	</pattern>
	<rect x="207.3" y="75.9" class="st6" width="231.2" height="151"/>
	
		<pattern  id="SVGID_3_" xlink:href="#SVGID_7_" patternTransform="matrix(1.8444 0 0 -1.6682 1142.8634 -21052.1777)"  class="st4">
	</pattern>
	<path class="st7" d="M231.4,228.6v126H29.1c-14.9,0-27.2-10-28.9-22.7V228.6H231.4z"/>
	
		<pattern  id="SVGID_4_" xlink:href="#SVGID_8_" patternTransform="matrix(1.8444 0 0 -1.6682 1084.2999 -21052.1777)"  class="st4">
	</pattern>
	<path class="st8" d="M438.5,228.6v105.1c-2.5,11.9-14.3,20.9-28.6,20.9H207.3v-126H438.5z"/>
</g>
<g>
	<g>
		<path class="st2" d="M53,235.6c0-81.2,74.5-147,166.3-147s166.3,65.8,166.3,147"/>
		<path class="st9" d="M53,235.6c0-81.2,74.5-147,166.3-147s166.3,65.8,166.3,147"/>
	</g>
	<defs>
		<filter id="Adobe_OpacityMaskFilter" filterUnits="userSpaceOnUse" x="51.4" y="87" width="335.8" height="148.6">
			<feColorMatrix  type="matrix" values="1 0 0 0 0  0 1 0 0 0  0 0 1 0 0  0 0 0 1 0"/>
		</filter>
	</defs>
	<mask maskUnits="userSpaceOnUse" x="51.4" y="87" width="335.8" height="148.6" id="SVGID_9_">
		<g class="st10">
		</g>
	</mask>
	<g class="st11">
		<path class="st12" d="M53,235.6c0-81.2,74.5-147,166.3-147s166.3,65.8,166.3,147"/>
		<path class="st13" d="M53,235.6c0-81.2,74.5-147,166.3-147s166.3,65.8,166.3,147"/>
	</g>
</g>
<polyline class="st14" points="49.5,312.2 152.9,312.2 268,312.2 385.1,312.2 "/>
<line class="st15" x1="219.4" y1="90.3" x2="219.4" y2="111.1"/>
<line class="st15" x1="144.9" y1="106.2" x2="156.6" y2="126.5"/>
<line class="st15" x1="81.8" y1="156.5" x2="102.1" y2="168.2"/>
<line class="st15" x1="55.6" y1="228" x2="79.8" y2="229.1"/>
<line class="st15" x1="301.4" y1="109.8" x2="290.1" y2="127"/>
<line class="st15" x1="361.4" y1="163" x2="342" y2="172.9"/>
<g>
	<path class="st16" d="M54.7,235.6c0-79.6,74.6-145.5,164.6-145.5s164.8,66,164.8,145.5"/>
	<line class="st15" x1="210.8" y1="90.5" x2="211.5" y2="101.5"/>
	<line class="st15" x1="202.2" y1="91.1" x2="203.5" y2="102.1"/>
	<line class="st15" x1="193.7" y1="92.1" x2="195.7" y2="103"/>
	<line class="st15" x1="185.3" y1="93.5" x2="187.9" y2="104.3"/>
	<line class="st15" x1="176.9" y1="95.3" x2="180.1" y2="105.9"/>
	<line class="st15" x1="168.7" y1="97.4" x2="172.5" y2="107.9"/>
	<line class="st15" x1="160.6" y1="100" x2="165.1" y2="110.3"/>
	<line class="st15" x1="152.6" y1="102.9" x2="157.7" y2="113"/>
	<line class="st15" x1="137.3" y1="109.8" x2="143.6" y2="119.4"/>
	<line class="st15" x1="130" y1="113.8" x2="136.8" y2="123"/>
	<line class="st15" x1="122.9" y1="118.1" x2="130.3" y2="127"/>
	<line class="st15" x1="116.1" y1="122.7" x2="124" y2="131.3"/>
	<line class="st15" x1="109.6" y1="127.7" x2="117.9" y2="135.9"/>
	<line class="st15" x1="103.4" y1="132.9" x2="112.2" y2="140.7"/>
	<line class="st15" x1="97.5" y1="138.4" x2="106.7" y2="145.8"/>
	<line class="st15" x1="91.9" y1="144.2" x2="101.6" y2="151.1"/>
	<line class="st15" x1="86.7" y1="150.2" x2="96.7" y2="156.7"/>
	<line class="st15" x1="77.3" y1="163" x2="88.1" y2="168.5"/>
	<line class="st15" x1="73.2" y1="169.7" x2="84.3" y2="174.7"/>
	<line class="st15" x1="69.5" y1="176.5" x2="80.9" y2="181"/>
	<line class="st15" x1="66.2" y1="183.6" x2="77.9" y2="187.5"/>
	<line class="st15" x1="63.4" y1="190.7" x2="75.2" y2="194.1"/>
	<line class="st15" x1="60.9" y1="198" x2="73" y2="200.9"/>
	<line class="st15" x1="58.9" y1="205.4" x2="71.1" y2="207.7"/>
	<line class="st15" x1="57.4" y1="212.9" x2="69.7" y2="214.6"/>
	<line class="st15" x1="56.3" y1="220.4" x2="68.7" y2="221.6"/>
	<line class="st15" x1="227.9" y1="90.5" x2="227.2" y2="101.5"/>
	<line class="st15" x1="236.5" y1="91.1" x2="235.2" y2="102.1"/>
	<line class="st15" x1="245" y1="92.1" x2="243" y2="103"/>
	<line class="st15" x1="253.4" y1="93.5" x2="250.8" y2="104.3"/>
	<line class="st15" x1="261.8" y1="95.3" x2="258.6" y2="105.9"/>
	<line class="st15" x1="270" y1="97.4" x2="266.2" y2="107.9"/>
	<line class="st15" x1="278.1" y1="100" x2="273.6" y2="110.3"/>
	<line class="st15" x1="286.1" y1="102.9" x2="281" y2="113"/>
	<line class="st15" x1="293.8" y1="106.2" x2="288.1" y2="116"/>
	<line class="st15" x1="308.7" y1="113.8" x2="301.9" y2="123"/>
	<line class="st15" x1="315.8" y1="118.1" x2="308.4" y2="127"/>
	<line class="st15" x1="322.6" y1="122.7" x2="314.7" y2="131.3"/>
	<line class="st15" x1="329.1" y1="127.7" x2="320.7" y2="135.9"/>
	<line class="st15" x1="335.3" y1="132.9" x2="326.5" y2="140.7"/>
	<line class="st15" x1="341.2" y1="138.4" x2="332" y2="145.8"/>
	<line class="st15" x1="346.8" y1="144.2" x2="337.1" y2="151.1"/>
	<line class="st15" x1="352" y1="150.2" x2="341.9" y2="156.7"/>
	<line class="st15" x1="356.9" y1="156.5" x2="346.4" y2="162.5"/>
	<line class="st15" x1="365.5" y1="169.7" x2="354.4" y2="174.7"/>
	<line class="st15" x1="369.2" y1="176.5" x2="357.8" y2="181"/>
	<line class="st15" x1="372.5" y1="183.6" x2="360.8" y2="187.5"/>
	<line class="st15" x1="375.3" y1="190.7" x2="363.5" y2="194.1"/>
	<line class="st15" x1="377.8" y1="198" x2="365.7" y2="200.9"/>
	<line class="st15" x1="379.8" y1="205.4" x2="367.6" y2="207.7"/>
	<line class="st15" x1="381.3" y1="212.9" x2="369" y2="214.6"/>
	<line class="st15" x1="382.4" y1="220.4" x2="370" y2="221.6"/>
</g>
<line class="st15" x1="383.1" y1="228" x2="359.9" y2="229.1"/>
<path class="st17" d="M274,235.6H164.7c0.1,0,0.1-0.1,0.2-0.1c16.1-8,34.7-12.5,54.5-12.5s38.3,4.6,54.4,12.5
	C273.9,235.5,274,235.5,274,235.6z"/>
<g>
	<text transform="matrix(0.5205 -0.8539 0.8539 0.5205 107.6564 184.1553)" class="st17 st18 st19">89.1</text>
</g>
<g>
	<text transform="matrix(0.4798 0.8774 -0.8774 0.4798 323.0915 164.6145)" class="st17 st18 st20">92.3</text>
</g>
<g>
	<g>
		<path class="st21" d="M295.5,145.4c-1.7,2.7-2.6,4.1-4.4,6.8l0,0c2.7-1.7,4.1-2.6,6.9-4.2c1,1.1,1.5,1.6,2.5,2.7
			c-3.3,3-5,4.5-8.3,7.5c-0.6-0.6-0.9-0.9-1.4-1.6c2.6-2.4,3.9-3.7,6.5-6.1l0,0c-3.2,1.8-4.8,2.7-8,4.6c-0.5-0.5-0.8-0.8-1.3-1.3
			c2-3.1,2.9-4.7,4.8-7.8l0,0c-2.5,2.5-3.8,3.8-6.3,6.4c-0.6-0.6-0.9-0.9-1.5-1.5c3.1-3.2,4.6-4.9,7.7-8.1
			C293.9,143.8,294.5,144.4,295.5,145.4z"/>
		<path class="st21" d="M305.4,156.3c-2.7,3.8-4,5.7-6.8,9.4c-0.6-0.8-0.9-1.1-1.5-1.9c0.6-0.8,0.9-1.1,1.5-1.9
			c-0.8-1-1.2-1.4-2-2.4c-0.9,0.4-1.3,0.7-2.1,1.1c-0.6-0.7-0.9-1.1-1.6-1.8c4.2-2.1,6.3-3.1,10.5-4.9
			C304.2,154.9,304.6,155.4,305.4,156.3z M299.7,160.5c1.3-1.6,1.9-2.4,3.2-4.1l0,0c-1.9,0.9-2.8,1.4-4.6,2.3
			C298.9,159.4,299.2,159.7,299.7,160.5z"/>
		<path class="st21" d="M309.3,161.4c-0.8,1.4-1.2,2.1-2,3.4c1.5-0.3,2.3-0.5,3.9-0.8c0.6,0.9,0.9,1.3,1.5,2.2
			c-2.5,0.3-3.7,0.4-6.2,0.8c-1.2,2.3-1.8,3.4-3,5.6c-0.6-0.9-0.9-1.3-1.5-2.1c0.9-1.4,1.3-2.1,2.1-3.6c-1.6,0.3-2.4,0.5-4,0.9
			c-0.6-0.8-0.9-1.2-1.5-2c2.5-0.5,3.7-0.7,6.3-1.1c1.1-2.2,1.7-3.3,2.7-5.6C308.3,160,308.6,160.5,309.3,161.4z"/>
		<path class="st21" d="M316.1,171.5c-2.5,2.2-3.8,3.3-6.4,5.4l0,0c3.1-1.2,4.7-1.8,7.9-3c0.5,0.8,0.7,1.2,1.2,2.1
			c-2.6,2.1-3.9,3.2-6.6,5.2l0,0c3.2-1.1,4.7-1.7,7.9-2.8c0.5,0.8,0.7,1.3,1.1,2.1c-4.4,1.2-6.6,1.9-10.9,3.3
			c-0.5-0.9-0.7-1.4-1.2-2.3c2.6-2,3.9-3.1,6.4-5.1l0,0c-3.1,1.1-4.6,1.7-7.7,2.9c-0.5-0.9-0.8-1.3-1.3-2.2c3.4-3,5.1-4.6,8.4-7.7
			C315.4,170.3,315.6,170.7,316.1,171.5z"/>
		<path class="st21" d="M322.9,188.6c-0.7-1.6-1.1-2.4-1.8-4c-0.9,0.5-1.4,0.7-2.4,1.1c0.7,1.4,1,2.2,1.7,3.6
			c-0.7,0.3-1,0.5-1.7,0.8c-0.6-1.4-1-2.2-1.7-3.6c-1.1,0.5-1.6,0.8-2.7,1.3c0.7,1.5,1.1,2.3,1.8,3.9c-0.7,0.3-1,0.4-1.7,0.7
			c-1.1-2.4-1.6-3.6-2.8-5.9c4-2,6-3,10-5c1.2,2.5,1.8,3.7,2.9,6.2C324,188.1,323.6,188.3,322.9,188.6z"/>
		<path class="st21" d="M325.3,189.2c0.4,0.9,0.6,1.4,1,2.3c-4.1,1.7-6.2,2.5-10.4,4.2c-0.3-0.8-0.5-1.3-0.9-2.1
			C319.1,191.9,321.1,191,325.3,189.2z"/>
		<path class="st21" d="M326.3,199.2c0.2-0.1,0.4-0.3,0.5-0.4c0.1-0.2,0.2-0.4,0.3-0.6c0.1-0.2,0-0.4,0-0.7
			c-0.2-0.6-0.6-0.9-1.3-0.9c-0.7,0-1.6,0.2-3,0.7c-0.6,0.2-1.2,0.5-1.7,0.7s-0.9,0.5-1.2,0.7c-0.3,0.2-0.5,0.5-0.7,0.8
			c-0.1,0.3-0.1,0.6,0,0.9c0,0.1,0.1,0.3,0.3,0.4c0.1,0.1,0.3,0.2,0.5,0.3s0.4,0.1,0.6,0.2c0.2,0,0.5,0,0.8-0.1
			c0.4-0.1,0.6-0.2,1.1-0.4c-0.2-0.6-0.3-0.9-0.5-1.5c0.6-0.2,0.9-0.3,1.6-0.6c0.5,1.5,0.8,2.2,1.3,3.7c-2.3,0.8-3.4,1.1-5.7,1.9
			c-0.2-0.6-0.3-1-0.5-1.6c0.4-0.1,0.6-0.2,1-0.3l0,0c-0.5-0.1-0.9-0.3-1.2-0.6c-0.3-0.3-0.5-0.7-0.7-1.2c-0.2-0.7-0.3-1.2-0.3-1.7
			c0.1-0.5,0.3-1,0.7-1.4c0.4-0.4,0.9-0.8,1.5-1.2c0.7-0.4,1.4-0.7,2.3-1.1c0.9-0.3,1.7-0.6,2.4-0.7c0.7-0.1,1.3-0.1,1.9,0
			s1,0.4,1.5,0.8c0.4,0.4,0.8,1,1,1.7c0.5,1.3,0.5,2.3,0.1,3.1s-1.1,1.3-2.2,1.7c-0.3-0.9-0.4-1.3-0.8-2.2
			C325.9,199.4,326.1,199.3,326.3,199.2z"/>
		<path class="st21" d="M330.9,204.7c-1.6,0.5-2.5,0.7-4.1,1.2c0.3,1.1,0.5,1.6,0.8,2.7c1.7-0.4,2.5-0.7,4.1-1.1
			c0.3,1,0.4,1.4,0.6,2.4c-4.3,1.1-6.5,1.6-10.9,2.7c-0.2-0.9-0.3-1.3-0.6-2.2c1.9-0.5,2.9-0.8,4.8-1.3c-0.3-1.1-0.4-1.6-0.8-2.7
			c-1.9,0.6-2.9,0.8-4.8,1.4c-0.3-0.9-0.4-1.3-0.7-2.2c4.3-1.3,6.4-2,10.7-3.4C330.4,203.3,330.6,203.8,330.9,204.7z"/>
		<path class="st21" d="M332.4,219.1c-0.2-1.1-0.3-1.6-0.5-2.6c-3.7,0.8-5.5,1.1-9.1,1.9c-0.2-0.9-0.3-1.4-0.5-2.3
			c3.6-0.8,5.5-1.2,9.1-2c-0.2-1-0.4-1.6-0.6-2.6c0.7-0.2,1.1-0.3,1.8-0.4c0.8,3.1,1.1,4.6,1.7,7.8
			C333.5,218.9,333.1,219,332.4,219.1z"/>
	</g>
</g>
<text transform="matrix(1 0 0 1 316.6548 357.8589)" class="st22 st23">Mon 3.11pm</text>
<rect class="st24" width="438.5" height="694.7"/>
<g>
	<text transform="matrix(1 0 0 1 70.663 306.0884)" class="st25 st26 st27">Russian </text>
	<text transform="matrix(1 0 0 1 70.663 306.0884)" class="st28 st26 st27">Russian </text>
	<text transform="matrix(1 0 0 1 69.2719 356.3609)" class="st29 st26 st30">Case Tester</text>
	<text transform="matrix(1 0 0 1 69.2719 356.3609)" class="st31 st26 st30">Case Tester</text>
</g>
<path class="st32" d="M343.6,75.7c0,0.1,0,0.1,0,0.2V75.7L343.6,75.7z"/>
<path class="st32" d="M376,121.6l0.4,0.1c-0.1,0.3-0.3,0.6-0.6,0.9c0-0.2,0-0.4,0.1-0.6C375.9,121.8,376,121.7,376,121.6z"/>
<path class="st32" d="M376.5,121.1c0,0.2,0,0.3,0,0.5v0.1c-0.1,0.3-0.3,0.6-0.6,0.9c0-0.2,0-0.4,0.1-0.6c0-0.1,0.1-0.3,0.2-0.4
	C376.1,121.4,376.3,121.2,376.5,121.1z"/>
<path class="st32" d="M376.5,121.1c0,0.2,0,0.3,0,0.5v0.1c-0.1,0.3-0.3,0.6-0.6,0.9c0-0.2,0-0.4,0.1-0.6c0-0.1,0.1-0.3,0.2-0.4
	C376.1,121.4,376.3,121.2,376.5,121.1z"/>
<g>
	<polygon class="st33" points="203.4,117.6 203.4,124 190.5,124 190.5,130.6 174.2,121 190.5,111.4 190.5,117.6 	"/>
	<polygon class="st34" points="224,102.9 224,109.3 236.9,109.3 236.9,115.9 253.2,106.2 236.9,96.7 236.9,102.9 	"/>
	<path class="st32" d="M208.4,102.2c0,0.1,0,0.1,0,0.2V102.2C208.4,102.3,208.4,102.2,208.4,102.2z"/>
	<path class="st32" d="M235.4,140.4l0.3,0.1c-0.1,0.3-0.3,0.5-0.5,0.7c0-0.2,0-0.3,0-0.5C235.2,140.6,235.3,140.5,235.4,140.4z"/>
	<path class="st32" d="M235.7,140c0,0.1,0,0.3,0,0.4v0.1c-0.1,0.3-0.3,0.5-0.5,0.7c0-0.2,0-0.3,0-0.5c0-0.1,0.1-0.2,0.2-0.3
		C235.5,140.2,235.6,140.1,235.7,140z"/>
	<path class="st32" d="M235.7,140c0,0.1,0,0.3,0,0.4v0.1c-0.1,0.3-0.3,0.5-0.5,0.7c0-0.2,0-0.3,0-0.5c0-0.1,0.1-0.2,0.2-0.3
		C235.5,140.2,235.6,140.1,235.7,140z"/>
	<g>
		<path class="st35" d="M258.6,175.1c0,5.2-5.3,13.6-6.3,14.9c-0.1,0.1-0.1,0.2-0.1,0.4v11.8c0,0.4-0.3,0.6-0.6,0.6h-46.1
			c-0.3,0-0.6-0.3-0.6-0.6v-11.6c0-2.5-1-5.6-3.3-7.5c-2.2-1.8-5.1-9.6-5.5-10.7l0,0c-0.4-1.1-0.6-2.2-0.6-3.4v-9.8
			c0-16.9,6.5-18.6,8.7-18.7c0.4,0,0.7,0.3,0.7,0.6l-0.2,14.4v0.1c0,1.9,1,3.7,2.7,4.7c0.4,0.2,1-0.1,1-0.5l0.1-57.4
			c0-0.1,0-0.1,0-0.2c0.1-2.7,2.5-4.8,5.3-4.8c2.4,0,4.4,1.5,5.1,3.5v0.1c0.1,0.4,0.2,0.8,0.3,1l3.5,34.5v0.1c1.1-1,3.9-1.3,6.9-0.6
			c3.4,0.7,6,2.4,6.2,3.9c-0.2,0.1-0.3,0.3-0.4,0.4c-0.1,0.1-0.1,0.2-0.2,0.3c0,0.2-0.1,0.3,0,0.5c0.3-0.2,0.4-0.4,0.5-0.7v-0.1
			c0-0.1,0-0.3,0-0.4c1.1-0.9,3.5-1,6.1-0.3c2.7,0.8,4.7,2.3,5.1,3.6c0,0,0,0.1-0.1,0.1c0,0.1-0.1,0.1-0.1,0.2
			c-0.1,0.2-0.1,0.5,0,0.8c0.1-0.1,0.1-0.2,0.1-0.3c0.1-0.2,0.1-0.4,0-0.7c0-0.1,0-0.1,0-0.1c0.8-1.2,3.8-1.5,7-0.6s4.3,2.7,4.3,4.2
			l0,0l0,0v0.1v-0.1l0,0c-0.2,1.4-2,2.1-5.1,1.4c3,0.7,4.8,0.3,5.1-1.1c0,0,0,0,0-0.1l0,0c0-0.1,0-0.1,0-0.2L258.6,175.1z"/>
		<path class="st2" d="M258.6,175.1c0,5.2-5.3,13.6-6.3,14.9c-0.1,0.1-0.1,0.2-0.1,0.4v11.8c0,0.4-0.3,0.6-0.6,0.6h-46.1
			c-0.3,0-0.6-0.3-0.6-0.6v-11.6c0-2.5-1-5.6-3.3-7.5c-2.2-1.8-5.1-9.6-5.5-10.7l0,0c-0.4-1.1-0.6-2.2-0.6-3.4v-9.8
			c0-10.8,2.7-15.4,5.2-17.3c1.4-1.1,2.7-1.4,3.5-1.4c0.4,0,0.7,0.3,0.7,0.6l-0.2,14.4v0.1c0,1.9,1,3.7,2.7,4.7c0.4,0.2,1-0.1,1-0.5
			v-23.9v-0.5l0.1-33c0-0.1,0-0.1,0-0.2c0.1-2.7,2.5-4.8,5.3-4.8c2.4,0,4.4,1.5,5.1,3.5v0.1c0.1,0.4,0.2,0.8,0.3,1l3.5,34.5v0.1
			c1.1-1,3.9-1.3,6.9-0.6h0.1c3.4,0.7,5.9,2.4,6,3.8c-0.2,0.1-0.3,0.3-0.4,0.4c-0.1,0.1-0.1,0.2-0.2,0.3c0,0.2-0.1,0.3,0,0.5
			c0.3-0.2,0.4-0.4,0.5-0.7v-0.1c0-0.1,0-0.3,0-0.4c1.1-0.9,3.5-1,6.1-0.3c2.7,0.8,4.7,2.3,5.1,3.6c0,0,0,0.1-0.1,0.1
			c0,0.1-0.1,0.1-0.1,0.2c-0.1,0.2-0.1,0.5,0,0.8c0.1-0.1,0.1-0.2,0.1-0.3c0.1-0.2,0.1-0.4,0-0.7c0-0.1,0-0.1,0-0.1
			c0.8-1.2,3.8-1.5,7-0.6c3.2,0.9,4.3,2.7,4.3,4.2l0,0l0,0l0,0l0,0c-0.2,1.4-2,2.1-5.1,1.4c3,0.7,4.8,0.3,5.1-1.1c0,0,0,0,0-0.1l0,0
			c0-0.1,0-0.1,0-0.2L258.6,175.1z"/>
		<g>
			<path class="st36" d="M222.6,136.7l-6.6-1.9l-2.3-37.3c2.4,0,4.4,1.5,5.1,3.5v0.1c0.1,0.4,0.2,0.8,0.3,1L222.6,136.7
				C222.6,136.6,222.6,136.7,222.6,136.7z"/>
			<path class="st36" d="M258.3,147.3L258.3,147.3L258.3,147.3c0-0.2,0-0.2,0-0.3l0.3,28c0,5.2-5.3,13.6-6.3,14.9
				c-0.1,0.1-0.1,0.2-0.1,0.4v11.8c0,0.4-0.3,0.6-0.6,0.6h-16.1l0.2-55l-6-2.3V136c3.4,0.7,5.9,2.4,6,3.8c1.1-0.9,3.5-1,6.1-0.3
				c2.7,0.8,4.7,2.3,5.1,3.6c0.8-1.2,3.8-1.5,7-0.6c3.2,0.9,4.3,2.7,4.3,4.2l0,0l0,0l0,0l0,0L258.3,147.3z"/>
			<path class="st36" d="M208.4,172.1c-9,0-7.8-10.3-7.8-10.3v-19.9c1.4-1.1,2.7-1.4,3.5-1.4c0.4,0,0.7,0.3,0.7,0.6l-0.2,14.4v0.1
				c0,1.9,1,3.7,2.7,4.7c0.4,0.2,1-0.1,1-0.5v-23.9l0.1,22.6C208.4,158.5,208.3,164.7,208.4,172.1z"/>
		</g>
	</g>
	<path class="st2" d="M252.2,197.3v5.6c0,3.2-3.4,5.7-7.4,5.7h-32.7c-4,0-7.3-2.6-7.3-5.7v-5.6H252.2z"/>
	<path class="st36" d="M252.2,194.6v8.3c0,3.2-3.4,5.7-7.4,5.7h-9.3v-14H252.2z"/>
	<g>
		<path class="st37" d="M258.3,147.3L258.3,147.3L258.3,147.3c0-0.2,0-0.2,0-0.3l0.3,28c0,5.2-5.3,13.6-6.3,14.9
			c-0.1,0.1-0.1,0.2-0.1,0.4v11.8c0,0.4-0.3,0.6-0.6,0.6h-46.1c-0.3,0-0.6-0.3-0.6-0.6v-11.6c0-2.5-1-5.6-3.3-7.5
			c-2.2-1.8-5.1-9.6-5.5-10.7l0,0c-0.4-1.1-0.6-2.2-0.6-3.4v-9.8c0-16.9,6.5-18.6,8.7-18.7c0.4,0,0.7,0.3,0.7,0.6l-0.2,14.4v0.1
			c0,1.9,1,3.7,2.7,4.7c0.4,0.2,1-0.1,1-0.5l0.1-57.4c0-0.1,0-0.1,0-0.2c0.1-2.7,2.5-4.8,5.3-4.8c2.4,0,4.4,1.5,5.1,3.5v0.1
			c0.1,0.4,0.2,0.8,0.3,1l3.5,34.5v0.1c1.1-1,3.9-1.3,6.9-0.6c3.4,0.7,6,2.4,6.2,3.9c-0.2,0.1-0.3,0.3-0.4,0.4
			c-0.1,0.1-0.1,0.2-0.2,0.3c0,0.2-0.1,0.3,0,0.5c0.3-0.2,0.4-0.4,0.5-0.7v-0.1c0-0.1,0-0.3,0-0.4c1.1-0.9,3.5-1,6.1-0.3
			c2.7,0.8,4.7,2.3,5.1,3.6c0,0,0,0.1-0.1,0.1c0,0.1-0.1,0.1-0.1,0.2c-0.1,0.2-0.1,0.5,0,0.8c0.1-0.1,0.1-0.2,0.1-0.3
			c0.1-0.2,0.1-0.4,0-0.7c0-0.1,0-0.1,0-0.1c0.8-1.2,3.8-1.5,7-0.6s4.3,2.7,4.3,4.2l0,0l0,0v0.1v-0.1l0,0"/>
		<path class="st38" d="M247,144.1c0.1-0.2,0.1-0.4,0-0.7c0-0.1,0-0.1,0-0.1c0.8-1.2,3.8-1.5,7-0.6c3.2,0.9,4.3,2.7,4.3,4.2l0,0l0,0
			l0,0l0,0"/>
		<path class="st38" d="M235.7,140.5v-0.1c0-0.1,0-0.3,0-0.4c1.1-0.9,3.5-1,6.1-0.3c2.7,0.8,4.7,2.3,5.1,3.6c0,0,0,0.1-0.1,0.1
			c0,0.1-0.1,0.1-0.1,0.2"/>
		<path class="st38" d="M204.8,202.2v-11.6c0-2.5-1-5.6-3.3-7.5c-2.2-1.8-5.1-9.6-5.5-10.7l0,0c-0.4-1.1-0.6-2.2-0.6-3.4v-9.8
			c0-10.8,2.7-15.4,5.2-17.3c1.4-1.1,2.7-1.4,3.5-1.4c0.4,0,0.7,0.3,0.7,0.6l-0.2,14.4v0.1c0,1.9,1,3.7,2.7,4.7c0.4,0.2,1-0.1,1-0.5
			v-23.9v-0.5l0.1-33c0-0.1,0-0.1,0-0.2c0.1-2.7,2.5-4.8,5.3-4.8c2.4,0,4.4,1.5,5.1,3.5v0.1c0.1,0.4,0.2,0.8,0.3,1l3.5,34.5v0.1
			c1.1-1,3.9-1.3,6.9-0.6h0.1c3.4,0.7,5.9,2.4,6,3.8c-0.2,0.1-0.3,0.3-0.4,0.4c-0.1,0.1-0.1,0.2-0.2,0.3"/>
		<path class="st38" d="M258.3,147.3L258.3,147.3L258.3,147.3c0-0.2,0-0.2,0-0.3l0.3,28c0,5.2-5.3,13.6-6.3,14.9
			c-0.1,0.1-0.1,0.2-0.1,0.4v11.8"/>
	</g>
	<path class="st39" d="M252.2,201.4c0,4-3.4,7.3-7.4,7.3h-32.7c-4,0-7.3-3.3-7.3-7.3"/>
</g>
<polygon class="st2" points="77.7,0 0,77.7 0,0 "/>
<polygon class="st2" points="-0.4,616.6 77.3,694.3 -0.4,694.3 "/>
<polygon class="st2" points="438.5,77.7 360.8,0 438.5,0 "/>
<polygon class="st2" points="360.8,694.3 438.5,616.6 438.5,694.3 "/>
<text transform="matrix(1 0 0 1 130.1102 529.2246)" class="st40 st26 st41">Tap to begin!</text>
</svg>
