<?xml version="1.0" encoding="utf-8"?>
<!-- Generator: Adobe Illustrator 21.0.0, SVG Export Plug-In . SVG Version: 6.00 Build 0)  -->
<svg version="1.1" id="Layer_1" xmlns="http://www.w3.org/2000/svg" xmlns:xlink="http://www.w3.org/1999/xlink" x="0px" y="0px"
	 viewBox="0 0 438.5 694.3" style="enable-background:new 0 0 438.5 694.3;" xml:space="preserve">
<style type="text/css">
	.st0{fill:#D6D27F;}
	.st1{enable-background:new    ;}
	.st2{fill:#F63241;}
	.st3{fill:#212121;}
	.st4{fill:#F6BB0A;}
	.st5{fill:#FFD539;}
	.st6{fill:#161616;}
	.st7{opacity:0.44;enable-background:new    ;}
	.st8{fill:#FFFFFF;}
	.st9{fill:#EFEFEF;}
	.st10{fill:#191919;}
	.st11{fill:#262626;}
	.st12{fill:#3C3C3B;}
</style>
<g>
	<g>
		<rect y="-0.2" class="st0" width="438.5" height="694.7"/>
	</g>
</g>
<g>
	<g class="st1">
		<g>
			<path class="st2" d="M106.2,288.1L97,270.6h-0.8v17.5H76.5v-53.3c0,0,10.7-0.8,22.1-0.8c16.8,0,24.4,7.6,24.4,18.7
				c0,11-6.9,14.9-6.9,14.9l12.9,20.6H106.2z M98.6,256.9c2.7,0,4.6-1.9,4.6-4.2c0-2.3-1.9-4.2-4.6-4.2h-2.3v8.4H98.6z"/>
		</g>
		<g>
			<path class="st2" d="M131.3,269v-21.3h18.3V269c0,3,1.5,4.6,3,4.6c1.5,0,3-1.5,3-4.6v-21.3h18.3v40.4h-17.5l-1.5-4.6
				c0,0-3,5.7-9.9,5.7C137.4,289.2,131.3,283.1,131.3,269z"/>
		</g>
		<g>
			<path class="st2" d="M197.6,289.2c-12.6,0-19-7.2-19-7.2l5.7-9.1c0,0,3.8,3.8,9.5,3.8c1.1,0,1.9-0.8,1.9-1.5
				c0-2.3-14.9-3-14.9-15.2c0-7.2,6.1-13.3,17.9-13.3c10.3,0,16.8,6.5,16.8,6.5l-5.7,9.1c0,0-3-3-7.2-3c-1.1,0-1.9,0.8-1.9,1.5
				c0,2.3,14.9,3,14.9,15.2C215.5,283.1,209.4,289.2,197.6,289.2z"/>
		</g>
		<g>
			<path class="st2" d="M236.8,289.2c-12.6,0-19-7.2-19-7.2l5.7-9.1c0,0,3.8,3.8,9.5,3.8c1.1,0,1.9-0.8,1.9-1.5
				c0-2.3-14.9-3-14.9-15.2c0-7.2,6.1-13.3,17.9-13.3c10.3,0,16.8,6.5,16.8,6.5l-5.7,9.1c0,0-3-3-7.2-3c-1.1,0-1.9,0.8-1.9,1.5
				c0,2.3,14.9,3,14.9,15.2C254.7,283.1,248.6,289.2,236.8,289.2z"/>
		</g>
		<g>
			<path class="st2" d="M260,228.7h18.3v14.5H260V228.7z M278.3,247.7v40.4H260v-40.4H278.3z"/>
		</g>
		<g>
			<path class="st2" d="M326.3,267.9c0,6.5,0,14.2,0,20.2h-17.5l-1.5-4.6c0,0-3,5.7-9.9,5.7c-8.4,0-13.7-5.3-13.7-12.6
				c0-7.2,5.3-12.6,18.3-12.6h6.1c0,0-0.8-4.2-6.9-4.2c-3.8,0-6.9,3-6.9,3l-6.5-10.3c0,0,5.7-6.1,16-6.1
				C316.7,246.6,326.3,256.1,326.3,267.9z M308,270.6c-4.2,0-6.1,1.9-6.1,4.2c0,1.1,1.1,2.3,2.3,2.3C306.1,277,308,275.1,308,270.6z
				"/>
		</g>
		<g>
			<path class="st2" d="M375.8,266.8v21.3h-18.3v-21.3c0-3-1.5-4.6-3-4.6c-1.5,0-3,1.5-3,4.6v21.3h-18.3v-40.4h17.5l1.5,4.6
				c0,0,3-5.7,9.9-5.7C369.7,246.6,375.8,252.7,375.8,266.8z"/>
		</g>
	</g>
	<g class="st1">
		<g>
			<path class="st3" d="M130,288.6h-24.1l-9.1-17.3v17.3H75.9v-54.3l0.5,0c0.1,0,10.8-0.8,22.1-0.8c15.8,0,24.9,7,24.9,19.2
				c0,9.7-5.1,13.9-6.7,15L130,288.6z M106.5,287.6h21.6l-12.7-20.2l0.5-0.3c0.1,0,6.6-3.8,6.6-14.4c0-11.7-8.5-18.1-23.8-18.1
				c-9.9,0-19.3,0.6-21.6,0.7v52.3h18.7V270h1.6L106.5,287.6z M98.6,257.4h-2.8V248h2.8c2.9,0,5.1,2.1,5.1,4.7
				S101.4,257.4,98.6,257.4z M96.8,256.3h1.8c2.3,0,4-1.6,4-3.7s-1.7-3.7-4-3.7h-1.8V256.3z"/>
		</g>
		<g>
			<path class="st3" d="M145,289.8c-8.9,0-14.2-7.7-14.2-20.7v-21.9h19.3V269c0,2.8,1.3,4,2.5,4s2.5-1.3,2.5-4v-21.9h19.3v41.4
				h-18.4l-1.3-3.9C153.5,286.4,150.4,289.8,145,289.8z M131.8,248.3V269c0,12.3,4.9,19.7,13.2,19.7c6.5,0,9.4-5.4,9.4-5.4l0.6-1.1
				l1.8,5.4h16.6v-39.3h-17.2V269c0,3.5-1.9,5.1-3.6,5.1c-1.7,0-3.6-1.6-3.6-5.1v-20.8H131.8z"/>
		</g>
		<g>
			<path class="st3" d="M197.6,289.8c-12.7,0-19.2-7.1-19.4-7.4l-0.3-0.3l6.3-10l0.5,0.5c0,0,3.7,3.7,9.1,3.7c0.8,0,1.4-0.5,1.4-1
				c0-0.4-1.8-1.1-2.9-1.5c-4.5-1.8-11.9-4.9-11.9-13.7c0-9.6,9.3-13.9,18.4-13.9c10.4,0,16.9,6.4,17.1,6.6l0.3,0.3l-6.3,10.1
				l-0.5-0.5c0,0-3-2.9-6.9-2.9c-0.8,0-1.4,0.5-1.4,1c0,0.4,1.8,1.1,2.9,1.5c4.5,1.8,11.9,4.9,11.9,13.7
				C216,285.5,206.7,289.8,197.6,289.8z M179.2,281.9c1.3,1.3,7.6,6.8,18.4,6.8c10.6,0,17.4-5,17.4-12.8c0-8.1-7.1-11-11.3-12.7
				c-2.2-0.9-3.6-1.5-3.6-2.5c0-1,0.9-2.1,2.4-2.1c3.4,0,6.1,1.9,7.1,2.8l5.1-8.2c-1.4-1.2-7.4-6-16.1-6c-10.6,0-17.4,5-17.4,12.8
				c0,8.1,7.1,11,11.3,12.7c2.2,0.9,3.6,1.5,3.6,2.5c0,1-0.9,2.1-2.4,2.1c-4.7,0-8.2-2.5-9.4-3.5L179.2,281.9z"/>
		</g>
		<g>
			<path class="st3" d="M236.8,289.8c-12.7,0-19.2-7.1-19.4-7.4l-0.3-0.3l6.3-10l0.5,0.5c0,0,3.7,3.7,9.1,3.7c0.8,0,1.4-0.5,1.4-1
				c0-0.4-1.8-1.1-2.9-1.5c-4.5-1.8-11.9-4.9-11.9-13.7c0-9.6,9.3-13.9,18.4-13.9c10.4,0,16.9,6.4,17.1,6.6l0.3,0.3l-6.3,10.1
				l-0.5-0.5c0,0-3-2.9-6.9-2.9c-0.8,0-1.4,0.5-1.4,1c0,0.4,1.8,1.1,2.9,1.5c4.5,1.8,11.9,4.9,11.9,13.7
				C255.2,285.5,246,289.8,236.8,289.8z M218.4,281.9c1.3,1.3,7.6,6.8,18.4,6.8c10.6,0,17.4-5,17.4-12.8c0-8.1-7.1-11-11.3-12.7
				c-2.2-0.9-3.6-1.5-3.6-2.5c0-1,0.9-2.1,2.4-2.1c3.4,0,6.1,1.9,7.1,2.8l5.1-8.2c-1.4-1.2-7.4-6-16.1-6c-10.6,0-17.4,5-17.4,12.8
				c0,8.1,7.1,11,11.3,12.7c2.2,0.9,3.6,1.5,3.6,2.5c0,1-0.9,2.1-2.4,2.1c-4.7,0-8.2-2.5-9.4-3.5L218.4,281.9z"/>
		</g>
		<g>
			<path class="st3" d="M278.8,288.6h-19.3v-41.4h19.3V288.6z M260.5,287.6h17.2v-39.3h-17.2V287.6z M278.8,243.7h-19.3v-15.5h19.3
				V243.7z M260.5,242.6h17.2v-13.4h-17.2V242.6z"/>
		</g>
		<g>
			<path class="st3" d="M297.3,289.8c-8.4,0-14.2-5.4-14.2-13.1c0-4.9,2.4-13.1,18.8-13.1h5.4c-0.5-1.1-1.9-3.1-6.1-3.1
				c-3.5,0-6.5,2.9-6.5,2.9l-0.5,0.5l-7-11.2l0.3-0.3c0.2-0.3,6-6.3,16.4-6.3c12.9,0,23,9.6,23,21.9v20.7h-18.4l-1.3-3.9
				C305.8,286.4,302.7,289.8,297.3,289.8z M301.9,264.6c-11.4,0-17.7,4.3-17.7,12c0,7.2,5.3,12,13.2,12c6.5,0,9.4-5.4,9.4-5.4
				l0.6-1.1l1.8,5.4h16.6v-19.7c0-11.7-9.6-20.8-21.9-20.8c-8.7,0-14,4.5-15.3,5.6l5.9,9.4c1-0.9,3.6-2.8,6.7-2.8
				c6.5,0,7.4,4.6,7.4,4.6l0.1,0.6H301.9z M304.2,277.6c-1.4,0-2.8-1.4-2.8-2.8c0-2.3,1.7-4.7,6.6-4.7h0.5v0.5
				C308.5,275.7,306.2,277.6,304.2,277.6z M307.5,271.1c-3.2,0.1-5,1.5-5,3.6c0,0.9,0.9,1.8,1.8,1.8
				C305.6,276.5,307.3,275.1,307.5,271.1z"/>
		</g>
		<g>
			<path class="st3" d="M376.3,288.6H357v-21.9c0-2.8-1.3-4-2.5-4c-1.2,0-2.5,1.3-2.5,4v21.9h-19.3v-41.4H351l1.3,3.9
				c1.2-1.7,4.3-5,9.7-5c8.9,0,14.2,7.7,14.2,20.7V288.6z M358,287.6h17.2v-20.8c0-12.3-4.9-19.7-13.2-19.7c-6.4,0-9.4,5.4-9.4,5.4
				l-0.6,1.1l-1.8-5.4h-16.6v39.3h17.2v-20.8c0-3.5,1.9-5.1,3.6-5.1c1.7,0,3.6,1.6,3.6,5.1V287.6z"/>
		</g>
	</g>
	<g class="st1">
		<g>
			<path class="st4" d="M91.5,301.8c9.7,0,14.3,5.6,14.3,5.6l-6.1,9.7c0,0-3.1-2.8-6.7-2.8c-3.6,0-6.1,2.6-6.1,6.1
				c0,3.6,2.6,6.1,6.1,6.1c3.6,0,6.7-2.8,6.7-2.8l6.1,9.7c0,0-4.6,5.6-14.3,5.6c-10.7,0-18.9-8.2-18.9-18.7S80.7,301.8,91.5,301.8z"
				/>
		</g>
		<g>
			<path class="st4" d="M136.5,324.8c0,4.4,0,9.6,0,13.6h-11.8l-1-3.1c0,0-2,3.8-6.7,3.8c-5.6,0-9.2-3.6-9.2-8.4s3.6-8.4,12.3-8.4
				h4.1c0,0-0.5-2.8-4.6-2.8c-2.6,0-4.6,2-4.6,2l-4.4-6.9c0,0,3.8-4.1,10.7-4.1C130.1,310.5,136.5,316.9,136.5,324.8z M124.2,326.6
				c-2.8,0-4.1,1.3-4.1,2.8c0,0.8,0.8,1.5,1.5,1.5C123,330.9,124.2,329.7,124.2,326.6z"/>
		</g>
		<g>
			<path class="st4" d="M151.9,339.1c-8.4,0-12.8-4.9-12.8-4.9l3.8-6.1c0,0,2.6,2.6,6.4,2.6c0.8,0,1.3-0.5,1.3-1c0-1.5-10-2-10-10.2
				c0-4.9,4.1-9,12-9c6.9,0,11.3,4.3,11.3,4.3l-3.8,6.1c0,0-2-2-4.9-2c-0.8,0-1.3,0.5-1.3,1c0,1.5,10,2,10,10.2
				C163.9,335,159.8,339.1,151.9,339.1z"/>
		</g>
		<g>
			<path class="st4" d="M195.1,324.8c0,0.2,0,2.4,0,2.6h-16.4c0,0,0.5,2.8,4.6,2.8c2.6,0,4.6-2,4.6-2l4.4,6.9c0,0-3.8,4.1-10.7,4.1
				c-8.7,0-15.1-6.4-15.1-14.3s6.4-14.3,14.3-14.3S195.1,316.9,195.1,324.8z M183.1,322.5c0-2-1-3.1-2.3-3.1s-2.3,1-2.3,3.1H183.1z"
				/>
		</g>
		<g>
			<path class="st4" d="M240.2,302.5v11.8h-9.7v24.1h-13.3v-24.1h-9.7v-11.8H240.2z"/>
		</g>
		<g>
			<path class="st4" d="M268.3,324.8c0,0.2,0,2.4,0,2.6h-16.4c0,0,0.5,2.8,4.6,2.8c2.6,0,4.6-2,4.6-2l4.4,6.9c0,0-3.8,4.1-10.7,4.1
				c-8.7,0-15.1-6.4-15.1-14.3s6.4-14.3,14.3-14.3S268.3,316.9,268.3,324.8z M256.3,322.5c0-2-1-3.1-2.3-3.1s-2.3,1-2.3,3.1H256.3z"
				/>
		</g>
		<g>
			<path class="st4" d="M282.6,339.1c-8.4,0-12.8-4.9-12.8-4.9l3.8-6.1c0,0,2.6,2.6,6.4,2.6c0.8,0,1.3-0.5,1.3-1c0-1.5-10-2-10-10.2
				c0-4.9,4.1-9,12-9c6.9,0,11.3,4.3,11.3,4.3l-3.8,6.1c0,0-2-2-4.9-2c-0.8,0-1.3,0.5-1.3,1c0,1.5,10,2,10,10.2
				C294.7,335,290.6,339.1,282.6,339.1z"/>
		</g>
		<g>
			<path class="st4" d="M296.7,321.5v-10.2h3.6v-8.7h12.3v8.7h4.6v10.2h-4.6v4.3c0,2,1,3.1,2.6,3.1c1,0,2-0.3,2-0.3v10.2
				c0,0-2,0.5-4.6,0.5c-7.7,0-12.3-4.6-12.3-13.6v-4.3H296.7z"/>
		</g>
		<g>
			<path class="st4" d="M348.9,324.8c0,0.2,0,2.4,0,2.6h-16.4c0,0,0.5,2.8,4.6,2.8c2.6,0,4.6-2,4.6-2l4.3,6.9c0,0-3.8,4.1-10.7,4.1
				c-8.7,0-15.1-6.4-15.1-14.3s6.4-14.3,14.3-14.3S348.9,316.9,348.9,324.8z M336.9,322.5c0-2-1-3.1-2.3-3.1s-2.3,1-2.3,3.1H336.9z"
				/>
		</g>
		<g>
			<path class="st4" d="M371.4,310.5c2,0,3.6,0.8,3.6,0.8l-2,11.3c0,0-2-1-3.6-1c-2.6,0-4.6,2-4.6,5.6v11.3h-12.3v-27.1h11.8l1,3.1
				C365.3,314.3,367.3,310.5,371.4,310.5z"/>
		</g>
	</g>
	<g class="st1">
		<g>
			<path class="st3" d="M91.5,339.6c-10.9,0-19.4-8.4-19.4-19.2s8.5-19.2,19.4-19.2c9.8,0,14.5,5.6,14.7,5.8l0.2,0.3l-6.7,10.5
				l-0.4-0.4c0,0-3-2.7-6.3-2.7c-3.3,0-5.6,2.3-5.6,5.6s2.3,5.6,5.6,5.6c3.3,0,6.3-2.7,6.3-2.7l0.4-0.4l6.7,10.5l-0.2,0.3
				C106,334.1,101.3,339.6,91.5,339.6z M91.5,302.3c-10.3,0-18.4,8-18.4,18.2s8.1,18.2,18.4,18.2c8.2,0,12.7-4.1,13.7-5.2l-5.6-8.9
				c-1,0.8-3.6,2.6-6.5,2.6c-3.8,0-6.6-2.8-6.6-6.6s2.8-6.6,6.6-6.6c3,0,5.5,1.8,6.5,2.6l5.6-8.9C104.1,306.4,99.6,302.3,91.5,302.3
				z"/>
		</g>
		<g>
			<path class="st3" d="M117.1,339.6c-5.7,0-9.7-3.7-9.7-8.9c0-2.7,1.1-7,7.6-8.4l-4.9-7.8l0.3-0.3c0.2-0.2,4.1-4.3,11.1-4.3
				c8.7,0,15.6,6.5,15.6,14.8v14.1h-12.6l-0.8-2.5C122.6,337.6,120.5,339.6,117.1,339.6z M120.1,322.7c-7.6,0-11.8,2.8-11.8,7.9
				c0,4.8,3.5,7.9,8.7,7.9c4.2,0,6.1-3.4,6.2-3.6l0.5-1l1.3,3.8H136v-13.1c0-7.9-6.3-13.8-14.6-13.8c-5.6,0-9.1,2.8-10.1,3.7
				l3.8,6.1c0.8-0.6,2.5-1.8,4.5-1.8c4.5,0,5.1,3.2,5.1,3.2l0.1,0.6H120.1z M119.6,319.9c-2.3,0-4.2,1.9-4.3,1.9l-0.4,0.4
				c1.4-0.3,3.2-0.5,5.2-0.5h3.4C123.1,321,122.1,319.9,119.6,319.9z M121.7,331.4c-1,0-2-1-2-2c0-1.6,1.2-3.3,4.6-3.3h0.5v0.5
				C124.7,330.2,123.1,331.4,121.7,331.4z M123.7,327.1c-1.9,0.1-3.1,1-3.1,2.3c0,0.5,0.5,1,1,1
				C122.6,330.4,123.6,329.6,123.7,327.1z"/>
		</g>
		<g>
			<path class="st3" d="M151.9,339.6c-8.6,0-13-4.8-13.2-5l-0.3-0.3l4.4-7l0.4,0.4c0,0,2.5,2.4,6,2.4c0.5,0,0.8-0.3,0.8-0.5
				c-0.1-0.2-1.1-0.6-1.9-0.9c-3-1.2-8.1-3.3-8.1-9.3c0-4.7,3.9-9.5,12.5-9.5c7,0,11.4,4.3,11.6,4.5l0.3,0.3l-4.4,7l-0.4-0.4
				c0,0-1.9-1.9-4.5-1.9c-0.5,0-0.8,0.3-0.8,0.5c0.1,0.2,1.1,0.6,1.9,0.9c3,1.2,8.1,3.3,8.1,9.3
				C164.4,334.9,160.5,339.6,151.9,339.6z M139.7,334.2c1,1,5.2,4.4,12.2,4.4c7,0,11.5-3.3,11.5-8.5c0-5.4-4.5-7.2-7.5-8.4
				c-1.6-0.6-2.5-1-2.5-1.8c0-0.8,0.8-1.5,1.8-1.5c2.2,0,4,1.1,4.7,1.8l3.3-5.3c-1.1-0.9-5-3.9-10.6-3.9c-7,0-11.5,3.3-11.5,8.5
				c0,5.4,4.5,7.2,7.5,8.4c1.6,0.6,2.5,1,2.5,1.8c0,0.8-0.8,1.5-1.8,1.5c-3.1,0-5.4-1.5-6.3-2.3L139.7,334.2z"/>
		</g>
		<g>
			<path class="st3" d="M181.6,339.6c-8.7,0-15.6-6.5-15.6-14.8c0-8.2,6.7-14.8,14.8-14.8s14.8,6.7,14.8,14.8v3.1h-7.2l0,0l4.6,7.2
				l-0.3,0.3C192.5,335.6,188.6,339.6,181.6,339.6z M180.8,311c-7.6,0-13.8,6.2-13.8,13.8c0,7.8,6.4,13.8,14.6,13.8
				c5.6,0,9.1-2.8,10.1-3.7l-3.8-6.1c-0.8,0.6-2.5,1.8-4.5,1.8c-4.5,0-5.1-3.2-5.1-3.2l-0.1-0.6h16.5v-2.1
				C194.6,317.2,188.4,311,180.8,311z M179.5,327.9c0.4,0.7,1.4,1.8,3.9,1.8c2,0,3.8-1.4,4.2-1.8H179.5z M183.6,323H178v-0.5
				c0-2.6,1.5-3.6,2.8-3.6s2.8,0.9,2.8,3.6V323z M179,322h3.6c-0.1-1.3-0.8-2.1-1.8-2.1C179.8,319.9,179.1,320.7,179,322z"/>
		</g>
		<g>
			<path class="st3" d="M230.9,338.9h-14.3v-24.1h-9.7V302h33.8v12.8h-9.7V338.9z M217.6,337.9h12.3v-24.1h9.7V303h-31.8v10.8h9.7
				V337.9z"/>
		</g>
		<g>
			<path class="st3" d="M254.7,339.6c-8.7,0-15.6-6.5-15.6-14.8c0-8.2,6.7-14.8,14.8-14.8s14.8,6.7,14.8,14.8v3.1l-7.2,0l4.6,7.2
				l-0.3,0.3C265.7,335.6,261.8,339.6,254.7,339.6z M254,311c-7.6,0-13.8,6.2-13.8,13.8c0,7.8,6.4,13.8,14.6,13.8
				c5.6,0,9.1-2.8,10.1-3.7l-3.8-6.1c-0.8,0.6-2.5,1.8-4.5,1.8c-4.5,0-5.1-3.2-5.1-3.2l-0.1-0.6h16.5v-2.1
				C267.8,317.2,261.6,311,254,311z M252.6,327.9c0.4,0.7,1.4,1.8,3.9,1.8c2,0,3.8-1.4,4.2-1.8H252.6z M256.8,323h-5.6v-0.5
				c0-2.6,1.5-3.6,2.8-3.6s2.8,0.9,2.8,3.6V323z M252.2,322h3.6c-0.1-1.3-0.8-2.1-1.8-2.1S252.3,320.7,252.2,322z"/>
		</g>
		<g>
			<path class="st3" d="M282.6,339.6c-8.6,0-13-4.8-13.2-5l-0.2-0.3l4.4-7l0.4,0.4c0,0,2.5,2.4,6,2.4c0.5,0,0.8-0.3,0.8-0.5
				c-0.1-0.2-1.1-0.6-1.9-0.9c-3-1.2-8.1-3.3-8.1-9.3c0-4.7,3.9-9.5,12.5-9.5c7,0,11.4,4.3,11.6,4.5l0.3,0.3l-4.4,7l-0.4-0.4
				c0,0-1.9-1.9-4.5-1.9c-0.5,0-0.8,0.3-0.8,0.5c0.1,0.2,1.1,0.6,1.9,0.9c3,1.2,8.1,3.3,8.1,9.3
				C295.2,334.9,291.3,339.6,282.6,339.6z M270.5,334.2c1,1,5.2,4.4,12.2,4.4c7,0,11.5-3.3,11.5-8.5c0-5.4-4.5-7.2-7.5-8.4
				c-1.6-0.6-2.5-1-2.5-1.8c0-0.8,0.8-1.5,1.8-1.5c2.2,0,4,1.1,4.7,1.8l3.3-5.3c-1.1-0.9-5-3.9-10.6-3.9c-7,0-11.5,3.3-11.5,8.5
				c0,5.4,4.5,7.2,7.5,8.4c1.6,0.6,2.5,1,2.5,1.8c0,0.8-0.8,1.5-1.8,1.5c-3.1,0-5.4-1.5-6.3-2.3L270.5,334.2z"/>
		</g>
		<g>
			<path class="st3" d="M312.6,339.9c-8.1,0-12.8-5.1-12.8-14.1V322h-3.6v-11.2h3.6V302h13.3v8.7h4.6V322h-4.6v3.8
				c0,1.2,0.4,2.6,2.1,2.6c0.9,0,1.9-0.2,1.9-0.2l0.6-0.2v11.3l-0.4,0.1C317.2,339.4,315.2,339.9,312.6,339.9z M297.2,321h3.6v4.8
				c0,8.4,4.2,13.1,11.8,13.1c1.8,0,3.4-0.3,4.1-0.4v-9.2c-0.4,0.1-1,0.1-1.5,0.1c-1.9,0-3.1-1.3-3.1-3.6V321h4.6v-9.2h-4.6V303
				h-11.3v8.7h-3.6V321z"/>
		</g>
		<g>
			<path class="st3" d="M335.3,339.6c-8.7,0-15.6-6.5-15.6-14.8c0-8.2,6.7-14.8,14.8-14.8c8.2,0,14.8,6.7,14.8,14.8v3.1l-7.2,0
				l4.6,7.2l-0.3,0.3C346.3,335.6,342.4,339.6,335.3,339.6z M334.6,311c-7.6,0-13.8,6.2-13.8,13.8c0,7.8,6.4,13.8,14.6,13.8
				c5.6,0,9.1-2.8,10.1-3.7l-3.8-6.1c-0.8,0.6-2.5,1.8-4.5,1.8c-4.5,0-5.1-3.2-5.1-3.2l-0.1-0.6h16.5v-2.1
				C348.4,317.2,342.2,311,334.6,311z M333.2,327.9c0.4,0.7,1.4,1.8,3.9,1.8c2,0,3.8-1.4,4.2-1.8H333.2z M337.4,323h-5.6v-0.5
				c0-2.6,1.5-3.6,2.8-3.6s2.8,0.9,2.8,3.6V323z M332.8,322h3.6c-0.1-1.3-0.8-2.1-1.8-2.1S332.9,320.7,332.8,322z"/>
		</g>
		<g>
			<path class="st3" d="M365.3,338.9H352v-28.1h12.6l0.8,2.4c0.9-1.2,2.9-3.2,6-3.2c2.1,0,3.7,0.8,3.8,0.8l0.3,0.2l-2.2,12.3
				l-0.6-0.3c0,0-2-1-3.4-1c-2.5,0-4.1,2.1-4.1,5.1V338.9z M353,337.9h11.3v-10.8c0-3.6,2.1-6.1,5.1-6.1c1.1,0,2.5,0.5,3.2,0.8
				l1.9-10.2c-0.5-0.2-1.7-0.6-3-0.6c-3.7,0-5.7,3.5-5.7,3.6l-0.5,1l-1.3-3.8H353V337.9z"/>
		</g>
	</g>
</g>
<g>
	<g>
		<path class="st5" d="M343.6,75.7c0,0.1,0,0.1,0,0.2V75.7L343.6,75.7z"/>
	</g>
</g>
<g>
	<g>
		<g>
			<polygon class="st4" points="203.4,117.6 203.4,124 190.5,124 190.5,130.6 174.2,121 190.5,111.4 190.5,117.6 			"/>
		</g>
		<g>
			<path class="st6" d="M191.1,131.7L172.9,121l18.2-10.7v6.7H204v7.7h-12.9V131.7z M175.5,121l14.4,8.5v-6.1h12.9v-5.1h-12.9v-5.7
				L175.5,121z"/>
		</g>
	</g>
	<g>
		<g>
			<polygon class="st2" points="224,102.9 224,109.3 236.9,109.3 236.9,115.9 253.2,106.2 236.9,96.7 236.9,102.9 			"/>
		</g>
		<g>
			<path class="st3" d="M236.3,117v-7.1h-12.9v-7.7h12.9v-6.7l18.2,10.6L236.3,117z M224.6,108.7h12.9v6.1l14.4-8.6l-14.4-8.4v5.7
				h-12.9V108.7z"/>
		</g>
	</g>
	<g>
		<g>
			<path class="st5" d="M208.4,102.2c0,0.1,0,0.1,0,0.2V102.2C208.4,102.3,208.4,102.2,208.4,102.2z"/>
		</g>
	</g>
	<g>
		<g>
			<path class="st5" d="M235.4,140.4l0.3,0.1c-0.1,0.3-0.3,0.5-0.5,0.7c0-0.2,0-0.3,0-0.5C235.2,140.6,235.3,140.5,235.4,140.4z"/>
		</g>
	</g>
	<g>
		<g>
			<path class="st5" d="M235.7,140c0,0.1,0,0.3,0,0.4v0.1c-0.1,0.3-0.3,0.5-0.5,0.7c0-0.2,0-0.3,0-0.5c0-0.1,0.1-0.2,0.2-0.3
				C235.5,140.2,235.6,140.1,235.7,140z"/>
		</g>
	</g>
	<g>
		<g>
			<path class="st5" d="M235.7,140c0,0.1,0,0.3,0,0.4v0.1c-0.1,0.3-0.3,0.5-0.5,0.7c0-0.2,0-0.3,0-0.5c0-0.1,0.1-0.2,0.2-0.3
				C235.5,140.2,235.6,140.1,235.7,140z"/>
		</g>
	</g>
	<g>
		<g class="st7">
			<g>
				<path class="st5" d="M258.6,175.1c0,5.2-5.3,13.6-6.3,14.9c-0.1,0.1-0.1,0.2-0.1,0.4v11.8c0,0.4-0.3,0.6-0.6,0.6h-46.1
					c-0.3,0-0.6-0.3-0.6-0.6v-11.6c0-2.5-1-5.6-3.3-7.5c-2.2-1.8-5.1-9.6-5.5-10.7l0,0c-0.4-1.1-0.6-2.2-0.6-3.4v-9.8
					c0-16.9,6.5-18.6,8.7-18.7c0.4,0,0.7,0.3,0.7,0.6l-0.2,14.4v0.1c0,1.9,1,3.7,2.7,4.7c0.4,0.2,1-0.1,1-0.5l0.1-57.4
					c0-0.1,0-0.1,0-0.2c0.1-2.7,2.5-4.8,5.3-4.8c2.4,0,4.4,1.5,5.1,3.5v0.1c0.1,0.4,0.2,0.8,0.3,1l3.5,34.5v0.1
					c1.1-1,3.9-1.3,6.9-0.6c3.4,0.7,6,2.4,6.2,3.9c-0.2,0.1-0.3,0.3-0.4,0.4c-0.1,0.1-0.1,0.2-0.2,0.3c0,0.2-0.1,0.3,0,0.5
					c0.3-0.2,0.4-0.4,0.5-0.7v-0.1c0-0.1,0-0.3,0-0.4c1.1-0.9,3.5-1,6.1-0.3c2.7,0.8,4.7,2.3,5.1,3.6c0,0,0,0.1-0.1,0.1
					c0,0.1-0.1,0.1-0.1,0.2c-0.1,0.2-0.1,0.5,0,0.8c0.1-0.1,0.1-0.2,0.1-0.3c0.1-0.2,0.1-0.4,0-0.7c0-0.1,0-0.1,0-0.1
					c0.8-1.2,3.8-1.5,7-0.6s4.3,2.7,4.3,4.2l0,0l0,0v0.1v-0.1l0,0c-0.2,1.4-2,2.1-5.1,1.4c3,0.7,4.8,0.3,5.1-1.1c0,0,0,0,0-0.1l0,0
					c0-0.1,0-0.1,0-0.2L258.6,175.1z"/>
			</g>
		</g>
		<g>
			<g>
				<path class="st8" d="M258.6,175.1c0,5.2-5.3,13.6-6.3,14.9c-0.1,0.1-0.1,0.2-0.1,0.4v11.8c0,0.4-0.3,0.6-0.6,0.6h-46.1
					c-0.3,0-0.6-0.3-0.6-0.6v-11.6c0-2.5-1-5.6-3.3-7.5c-2.2-1.8-5.1-9.6-5.5-10.7l0,0c-0.4-1.1-0.6-2.2-0.6-3.4v-9.8
					c0-10.8,2.7-15.4,5.2-17.3c1.4-1.1,2.7-1.4,3.5-1.4c0.4,0,0.7,0.3,0.7,0.6l-0.2,14.4v0.1c0,1.9,1,3.7,2.7,4.7
					c0.4,0.2,1-0.1,1-0.5v-23.9v-0.5l0.1-33c0-0.1,0-0.1,0-0.2c0.1-2.7,2.5-4.8,5.3-4.8c2.4,0,4.4,1.5,5.1,3.5v0.1
					c0.1,0.4,0.2,0.8,0.3,1l3.5,34.5v0.1c1.1-1,3.9-1.3,6.9-0.6h0.1c3.4,0.7,5.9,2.4,6,3.8c-0.2,0.1-0.3,0.3-0.4,0.4
					c-0.1,0.1-0.1,0.2-0.2,0.3c0,0.2-0.1,0.3,0,0.5c0.3-0.2,0.4-0.4,0.5-0.7v-0.1c0-0.1,0-0.3,0-0.4c1.1-0.9,3.5-1,6.1-0.3
					c2.7,0.8,4.7,2.3,5.1,3.6c0,0,0,0.1-0.1,0.1c0,0.1-0.1,0.1-0.1,0.2c-0.1,0.2-0.1,0.5,0,0.8c0.1-0.1,0.1-0.2,0.1-0.3
					c0.1-0.2,0.1-0.4,0-0.7c0-0.1,0-0.1,0-0.1c0.8-1.2,3.8-1.5,7-0.6c3.2,0.9,4.3,2.7,4.3,4.2l0,0l0,0l0,0l0,0
					c-0.2,1.4-2,2.1-5.1,1.4c3,0.7,4.8,0.3,5.1-1.1c0,0,0,0,0-0.1l0,0c0-0.1,0-0.1,0-0.2L258.6,175.1z"/>
			</g>
		</g>
		<g>
			<g>
				<g>
					<path class="st9" d="M222.6,136.7l-6.6-1.9l-2.3-37.3c2.4,0,4.4,1.5,5.1,3.5v0.1c0.1,0.4,0.2,0.8,0.3,1L222.6,136.7
						C222.6,136.6,222.6,136.7,222.6,136.7z"/>
				</g>
			</g>
			<g>
				<g>
					<path class="st9" d="M258.3,147.3L258.3,147.3L258.3,147.3c0-0.2,0-0.2,0-0.3l0.3,28c0,5.2-5.3,13.6-6.3,14.9
						c-0.1,0.1-0.1,0.2-0.1,0.4v11.8c0,0.4-0.3,0.6-0.6,0.6h-16.1l0.2-55l-6-2.3V136c3.4,0.7,5.9,2.4,6,3.8c1.1-0.9,3.5-1,6.1-0.3
						c2.7,0.8,4.7,2.3,5.1,3.6c0.8-1.2,3.8-1.5,7-0.6c3.2,0.9,4.3,2.7,4.3,4.2l0,0l0,0l0,0l0,0L258.3,147.3z"/>
				</g>
			</g>
			<g>
				<g>
					<path class="st9" d="M208.4,172.1c-9,0-7.8-10.3-7.8-10.3v-19.9c1.4-1.1,2.7-1.4,3.5-1.4c0.4,0,0.7,0.3,0.7,0.6l-0.2,14.4v0.1
						c0,1.9,1,3.7,2.7,4.7c0.4,0.2,1-0.1,1-0.5v-23.9l0.1,22.6C208.4,158.5,208.3,164.7,208.4,172.1z"/>
				</g>
			</g>
		</g>
	</g>
	<g>
		<g>
			<path class="st8" d="M252.2,197.3v5.6c0,3.2-3.4,5.7-7.4,5.7h-32.7c-4,0-7.3-2.6-7.3-5.7v-5.6H252.2z"/>
		</g>
	</g>
	<g>
		<g>
			<path class="st9" d="M252.2,194.6v8.3c0,3.2-3.4,5.7-7.4,5.7h-9.3v-14H252.2z"/>
		</g>
	</g>
	<g>
		<g class="st7">
			<g>
				<path class="st10" d="M251.6,203.3h-46.1c-0.6,0-1.2-0.6-1.2-1.2v-11.6c0-2.1-0.8-5.1-3.1-7c-2.3-1.9-5.1-9.5-5.7-11
					c-0.4-1.2-0.6-2.4-0.6-3.6v-9.8c0-17.1,6.5-19.2,9.3-19.3c0,0,0,0,0,0c0.8,0,1.4,0.6,1.4,1.2l-0.2,14.4l0,0.1
					c0,1.7,0.9,3.3,2.4,4.2c0,0,0,0,0,0l0.1-57.5c0.1-3,2.8-5.4,5.9-5.4c2.6,0,4.9,1.6,5.7,3.9l0,0.2c0.1,0.3,0.2,0.7,0.2,0.8
					l0.1,0.2l3.4,33.6c1.5-0.7,4-0.7,6.5-0.1c3,0.6,5.5,2,6.4,3.5c1.4-0.6,3.5-0.6,5.9,0.1c2.3,0.7,4.2,1.9,5.1,3.1
					c1.4-0.8,4.1-0.9,6.9-0.1c4.4,1.2,4.8,4,4.8,4.8l-1.3,0.1l1.3-0.1l-1.3,0.1c0-1.7-1.4-3-3.8-3.7c-2.8-0.8-5.3-0.6-6.1,0.1
					c0,0,0,0.1,0,0.1c0,0.2,0,0.4-0.1,0.7c0,0.2-0.1,0.4-0.3,0.6l-0.7,0.7l-0.3-1c-0.1-0.4-0.1-0.8,0-1.2c0-0.1,0-0.1,0.1-0.2v0
					c-0.5-1-2.1-2.2-4.5-2.9c-2.1-0.6-4.1-0.6-5.1-0.1l0,0.1l-0.2,0.1l0,0.3c-0.1,0.3-0.3,0.7-0.8,1l-0.6,0.4l-0.3-0.6
					c-0.2-0.3-0.1-0.6-0.1-0.7v-0.3l0.2-0.2c0-0.1,0.1-0.2,0.2-0.3c0,0,0.1-0.1,0.1-0.1v-0.1c-0.5-1.1-2.6-2.4-5.6-3
					c-3-0.7-5.5-0.3-6.3,0.4l-1.1,1v-1.5l-3.5-34.3c-0.1-0.3-0.2-0.6-0.3-1l0-0.1c-0.7-1.8-2.5-3-4.5-3c-2.5,0-4.6,1.9-4.7,4.2
					l0,0.2l-0.1,57.4c0,0.4-0.2,0.8-0.6,1c-0.4,0.3-0.9,0.3-1.3,0.1c-1.9-1.1-3.1-3.1-3.1-5.3v-0.1l0.2-14.4
					c-1.9,0.1-8.1,1.7-8.1,18.1v9.8c0,1.1,0.2,2.1,0.6,3.2c1.2,3.2,3.6,9,5.3,10.4c2.6,2.2,3.5,5.5,3.5,8v11.6l46.1,0l0-11.8
					c0-0.3,0-0.6,0.3-0.8c1.2-1.6,6.1-9.7,6.1-14.5l-0.3-28l1.3,0l0.3,28c0,5.5-5.5,14-6.4,15.3c0,0,0,0,0,0.1v11.8
					C252.8,202.8,252.3,203.3,251.6,203.3z M252.8,190.3C252.8,190.3,252.8,190.3,252.8,190.3L252.8,190.3
					C252.8,190.3,252.8,190.3,252.8,190.3z"/>
			</g>
		</g>
		<g>
			<g>
				<path class="st10" d="M258.9,146.9h-1.3c0-1.6-1.4-2.9-3.8-3.6c-2.8-0.8-5.4-0.6-6.1,0.2c0.1,0.3,0.1,0.6-0.1,0.9l-1.1-0.6
					c0,0,0,0,0-0.2l0-0.3v-0.2l0.1-0.2c1-1.5,4.2-1.8,7.7-0.9C258.6,143.3,258.9,146.1,258.9,146.9z"/>
			</g>
		</g>
		<g>
			<g>
				<path class="st10" d="M246.8,144v-0.4h-0.7c0-0.1,0-0.3,0.1-0.4v0c-0.5-1-2.1-2.2-4.5-2.9c-2.2-0.6-4.3-0.6-5.3,0v0.2h-1.3v-0.8
					l0.2-0.2c1.3-1,3.8-1.2,6.7-0.4c2.8,0.8,5.1,2.5,5.5,4l0,0.2c0,0.2-0.1,0.4-0.3,0.6c0,0,0,0.1-0.1,0.1c0,0,0,0,0-0.1
					C247.1,144,247,144,246.8,144z"/>
			</g>
		</g>
		<g>
			<g>
				<path class="st10" d="M205.4,202.2h-1.3v-11.6c0-2.1-0.8-5.1-3.1-7c-2.3-1.9-5.1-9.5-5.7-11c-0.4-1.2-0.6-2.4-0.6-3.6v-9.8
					c0-11.3,3-15.9,5.5-17.8c1.8-1.4,3.3-1.5,3.9-1.5c0.7,0,1.3,0.6,1.3,1.2l-0.2,14.4l0,0.1c0,1.7,0.9,3.3,2.4,4.2c0,0,0,0,0,0
					v-24.3l0.1-33.2c0.1-3,2.8-5.4,5.9-5.4c2.6,0,4.9,1.6,5.7,3.9l0,0.2c0.1,0.3,0.2,0.7,0.2,0.8l0.1,0.2l3.4,33.6
					c1.5-0.7,3.9-0.7,6.4-0.2l0.2,0c3.6,0.8,6.4,2.6,6.5,4.4l0,0.4l-0.4,0.2c0,0-0.1,0.1-0.1,0.1c-0.1,0.1-0.1,0.1-0.1,0.2
					c0,0.1-0.1,0.2-0.2,0.3l-0.9-0.9c0-0.1,0.1-0.2,0.2-0.3c0-0.1,0.1-0.1,0.1-0.2c-0.4-0.9-2.3-2.3-5.4-2.9l-0.2,0
					c-3-0.7-5.5-0.3-6.3,0.5l-1.1,1v-1.5l-3.5-34.3c-0.1-0.3-0.2-0.6-0.3-1l0-0.1c-0.7-1.8-2.5-3-4.5-3c-2.5,0-4.6,1.9-4.7,4.2
					l0,0.2l-0.1,33.5v23.9c0,0.4-0.2,0.8-0.6,1c-0.4,0.3-0.9,0.3-1.3,0.1c-1.9-1.1-3.1-3.1-3.1-5.3v-0.1l0.2-14.4
					c-0.5,0-1.7,0.2-3.2,1.3c-2.3,1.7-5,6-5,16.8v9.8c0,1.1,0.2,2.1,0.6,3.2c1.2,3.2,3.6,9,5.3,10.4c2.6,2.2,3.5,5.5,3.5,8V202.2z"
					/>
			</g>
		</g>
		<g>
			<g>
				<path class="st10" d="M252.8,202.1h-1.3v-11.8c0-0.3,0-0.6,0.3-0.8c1.2-1.6,6.1-9.7,6.1-14.5l-0.3-28l1.3,0l0.3,28
					c0,5.5-5.5,14-6.4,15.3c0,0,0,0,0,0.1V202.1z M252.8,190.3C252.8,190.3,252.8,190.3,252.8,190.3
					C252.8,190.3,252.8,190.3,252.8,190.3z"/>
			</g>
		</g>
	</g>
	<g>
		<g>
			<path class="st11" d="M244.8,209.3h-32.7c-4.4,0-7.9-3.6-7.9-7.9h1.3c0,3.7,3,6.7,6.7,6.7h32.7c3.7,0,6.8-3.1,6.8-6.7h1.3
				C252.8,205.7,249.2,209.3,244.8,209.3z"/>
		</g>
	</g>
</g>
<g class="st1">
	<g>
		<path class="st12" d="M147.6,510.7v6.1h-5v12.5h-6.9v-12.5h-5v-6.1H147.6z"/>
	</g>
	<g>
		<path class="st12" d="M161.4,522.2c0,2.3,0,5,0,7h-6.1l-0.5-1.6c0,0-1.1,2-3.4,2c-2.9,0-4.8-1.9-4.8-4.4s1.9-4.4,6.4-4.4h2.1
			c0,0-0.3-1.5-2.4-1.5c-1.3,0-2.4,1.1-2.4,1.1l-2.3-3.6c0,0,2-2.1,5.6-2.1C158.1,514.8,161.4,518.1,161.4,522.2z M155,523.1
			c-1.5,0-2.1,0.7-2.1,1.5c0,0.4,0.4,0.8,0.8,0.8C154.4,525.4,155,524.7,155,523.1z"/>
	</g>
	<g>
		<path class="st12" d="M173.8,529.6c-2.6,0-3.7-2-3.7-2v8.2h-6.4v-20.7h5.8c0.5,1.6,0.5,1.6,0.5,1.6s1.1-2,3.7-2
			c2.9,0,5.6,2.6,5.6,7.4C179.4,527,176.7,529.6,173.8,529.6z M171.3,520.2c-0.8,0-1.5,0.7-1.5,2s0.7,2,1.5,2c0.8,0,1.5-0.7,1.5-2
			S172.1,520.2,171.3,520.2z"/>
	</g>
	<g>
		<path class="st12" d="M186,520.5v-5.3h1.9v-4.5h6.4v4.5h2.4v5.3h-2.4v2.3c0,1.1,0.5,1.6,1.3,1.6c0.5,0,1.1-0.1,1.1-0.1v5.3
			c0,0-1.1,0.3-2.4,0.3c-4,0-6.4-2.4-6.4-7v-2.3H186z"/>
	</g>
	<g>
		<path class="st12" d="M206.8,514.8c4.8,0,8.1,3.3,8.1,7.4s-3.3,7.4-8.1,7.4s-8.1-3.3-8.1-7.4S202,514.8,206.8,514.8z M206.8,520.2
			c-0.9,0-1.7,0.8-1.7,2c0,1.2,0.8,2,1.7,2s1.7-0.8,1.7-2C208.5,521,207.7,520.2,206.8,520.2z"/>
	</g>
	<g>
		<path class="st12" d="M232.4,529.6c-2.6,0-3.7-2-3.7-2s0,0-0.5,1.6h-5.8v-19.6h6.4v7.2c0,0,1.1-2,3.7-2c2.9,0,5.6,2.6,5.6,7.4
			C237.9,527,235.3,529.6,232.4,529.6z M229.9,520.2c-0.8,0-1.5,0.7-1.5,2s0.7,2,1.5,2c0.8,0,1.5-0.7,1.5-2S230.7,520.2,229.9,520.2
			z"/>
	</g>
	<g>
		<path class="st12" d="M254.4,522.2c0,0.1,0,1.2,0,1.3h-8.5c0,0,0.3,1.5,2.4,1.5c1.3,0,2.4-1.1,2.4-1.1l2.3,3.6c0,0-2,2.1-5.6,2.1
			c-4.5,0-7.8-3.3-7.8-7.4s3.3-7.4,7.4-7.4S254.4,518.1,254.4,522.2z M248.1,521c0-1.1-0.5-1.6-1.2-1.6s-1.2,0.5-1.2,1.6H248.1z"/>
	</g>
	<g>
		<path class="st12" d="M265,527.1c0,0-1.1,2-3.7,2c-2.9,0-5.6-2.6-5.6-7.2c0-4.5,2.6-7.2,5.6-7.2c2.6,0,3.7,2,3.7,2l0.5-1.6h5.8
			v13.5c0,4.4-3.6,7.9-8.1,7.9c-3.8,0-6-2.3-6-2.3l2.6-4.2c0,0,1.1,1.1,2.4,1.1c1.6,0,2.6-1.1,2.6-2.5V527.1z M263.8,523.7
			c0.8,0,1.5-0.7,1.5-1.7s-0.7-1.7-1.5-1.7c-0.8,0-1.5,0.7-1.5,1.7S263,523.7,263.8,523.7z"/>
	</g>
	<g>
		<path class="st12" d="M274,508.6h6.4v5H274V508.6z M280.3,515.2v14H274v-14H280.3z"/>
	</g>
	<g>
		<path class="st12" d="M297.8,521.8v7.4h-6.4v-7.4c0-1.1-0.5-1.6-1.1-1.6c-0.5,0-1.1,0.5-1.1,1.6v7.4H283v-14h6.1l0.5,1.6
			c0,0,1.1-2,3.4-2C295.7,514.8,297.8,516.9,297.8,521.8z"/>
	</g>
	<g>
		<path class="st12" d="M306.4,522.3h-5l-0.9-12.7h6.9L306.4,522.3z M306.7,523.9v5.3h-5.6v-5.3H306.7z"/>
	</g>
</g>
</svg>
